		<svg xmlns="http://www.w3.org/2000/svg" width="712" height="769" viewBox="0 0 812 769" fill="none">
			<g filter="url(#filter0_d_32_384)">
				<path fill-rule="evenodd" clip-rule="evenodd"
					d="M722 70C722 53.4315 708.569 40 692 40H80C63.4315 40 50 53.4315 50 70.0001V638.702C50 655.271 63.4315 668.702 80 668.702L422 668.702C438.569 668.702 451.489 653.345 463.378 641.806C470.127 635.256 479.332 631.224 489.479 631.224H644.521C658.258 631.224 670.269 638.614 676.795 649.636C682.422 659.141 690.954 668.702 702 668.702C713.046 668.702 722 659.748 722 648.702V70Z"
					fill="white" />
			</g>
			<defs>
				<filter id="filter0_d_32_384" x="0" y="0" width="812" height="768.702" filterUnits="userSpaceOnUse"
					color-interpolation-filters="sRGB">
					<feFlood flood-opacity="0" result="BackgroundImageFix" />
					<feColorMatrix in="SourceAlpha" type="matrix" values="0 0 0 0 0 0 0 0 0 0 0 0 0 0 0 0 0 0 127 0"
						result="hardAlpha" />
					<feOffset dx="20" dy="30" />
					<feGaussianBlur stdDeviation="35" />
					<feComposite in2="hardAlpha" operator="out" />
					<feColorMatrix type="matrix" values="0 0 0 0 0.313056 0 0 0 0 0.315867 0 0 0 0 0.383333 0 0 0 0.1 0" />
					<feBlend mode="normal" in2="BackgroundImageFix" result="effect1_dropShadow_32_384" />
					<feBlend mode="normal" in="SourceGraphic" in2="effect1_dropShadow_32_384" result="shape" />
				</filter>
			</defs>
		</svg>