<svg width="501" height="595" viewBox="0 0 501 595" fill="none" xmlns="http://www.w3.org/2000/svg">
<mask id="mask0_32_176" style="mask-type:luminance" maskUnits="userSpaceOnUse" x="-94" y="0" width="595" height="595">
<path d="M-93.625 297.663C-93.625 461.749 39.3959 594.768 203.482 594.768C367.566 594.768 500.582 461.749 500.582 297.663C500.582 133.584 367.566 0.562927 203.482 0.562927C39.3959 0.562927 -93.625 133.584 -93.625 297.663Z" fill="#292929"/>
</mask>
<g mask="url(#mask0_32_176)">
<path d="M319.863 267.487C320.261 268.034 320.414 267.957 319.863 267.487V267.487Z" fill="#292929"/>
<path d="M364.516 412.341C364.857 411.846 365.055 411.839 364.516 412.341V412.341Z" fill="#292929"/>
<path d="M119.363 509.228C119.363 509.228 143.365 379.267 150.632 328.204C172.446 330.951 194.258 333.693 216.072 336.435C220.837 337.032 225.595 337.632 230.358 338.235C230.842 338.295 231.209 338.328 231.544 338.351C239.116 345.121 246.683 351.89 254.26 358.66C272.693 375.135 291.123 391.616 309.563 408.09C309.411 408.667 309.265 409.237 309.118 409.814C307.381 416.567 305.649 423.323 303.907 430.079C301.174 440.73 298.437 451.381 295.697 462.035C294.767 465.66 298.865 469.304 302.26 467.074C325.711 451.697 349.165 436.316 372.623 420.935C375.311 419.172 375.246 415.146 375.767 412.311C377.235 404.302 378.707 396.293 380.169 388.286C383.697 369.074 387.218 349.865 390.746 330.653C391.914 324.281 394.635 317.544 391.737 311.507C386.976 301.583 382.214 291.66 377.449 281.739C360.216 245.828 342.986 209.921 325.751 174.009C316.283 154.283 306.821 134.558 297.349 114.832C296.669 113.421 294.974 112.658 293.49 112.618C230.988 110.949 168.481 109.279 105.979 107.611C82.1486 106.974 58.3183 106.339 34.4835 105.702C27.3532 105.511 16.037 116.118 10.4114 119.593C-6.54443 130.063 -23.5003 140.53 -40.4584 150.997C-41.3584 151.551 -42.2584 152.107 -43.1561 152.665C21.6742 48.8323 146.735 -3.53516 267.114 25.5439C382.672 53.4532 469.432 155.502 481.683 273.1C489.942 352.395 462.916 432.193 410.056 491.479C356.621 551.418 278.56 579 198.839 585.7C181.609 587.149 157.632 581.153 157.632 581.153L119.363 509.228ZM-20.863 469.816C-27.9444 459.107 -35.6444 444.723 -31.577 431.56C-1.00723 362.195 29.5625 292.83 60.1346 223.463C77.8695 245.718 95.6044 267.981 113.339 290.237C122.114 301.246 130.886 312.26 139.66 323.272C138.697 327.76 102.397 511.569 102.397 511.569C102.397 511.569 119.528 554.956 128.095 576.651C87.6695 565.286 50.6091 541.502 19.1997 514.216C4.15789 501.144 -9.85374 486.472 -20.863 469.816ZM-49.5375 181.474C-45.4654 178.683 -41.3979 175.893 -37.3282 173.107C-15.8305 158.367 5.66254 143.63 27.1579 128.893C34.9835 154.725 42.8067 180.558 50.63 206.393C50.4835 206.679 50.3183 207.004 50.116 207.421C48.2067 211.249 46.2997 215.074 44.3904 218.904C37.6625 232.402 30.9346 245.897 24.2044 259.397C-3.10258 314.186 -30.4119 368.974 -57.7188 423.76C-75.7444 385.393 -85.0421 343.995 -85.3816 301.479C-85.1049 269.337 -79.2514 237.886 -65.6561 208.646C-62.1468 201.097 -56.4561 186.218 -49.5375 181.474ZM263.028 152.735C261.458 156.293 259.874 159.856 258.297 163.411C257.939 163.497 257.483 163.597 256.9 163.707C236.472 167.421 216.049 171.142 195.625 174.863C153.325 182.56 111.025 190.26 68.7253 197.96C59.7114 171.102 50.7021 144.244 41.6858 117.386C118.983 121.237 196.283 125.083 273.581 128.937C270.065 136.867 266.546 144.802 263.028 152.735ZM369.839 293.297C373.767 301.181 377.688 309.06 381.611 316.939C381.353 318.335 381.102 319.723 380.849 321.118C379.367 329.193 377.883 337.265 376.404 345.339C372.911 364.358 369.428 383.374 365.935 402.393C365.302 405.846 364.674 409.286 364.044 412.737C363.69 413.021 363.253 413.353 362.579 413.79C359.225 415.993 355.872 418.193 352.514 420.4C343.949 426.011 335.39 431.63 326.83 437.242C333.962 427.935 341.097 418.628 348.237 409.318C350.637 406.181 357.36 400.358 357.086 395.895C356.539 387.025 355.993 378.16 355.451 369.286C354.663 356.479 353.869 343.667 353.083 330.853C352.718 324.923 353.849 316.167 351.365 310.574C344.132 294.297 336.897 278.025 329.667 261.751C329.651 261.702 329.649 261.658 329.63 261.609C321.553 240.49 313.472 219.37 305.395 198.251C302.916 191.772 302.056 188.139 296.149 184.407C287.186 178.742 278.225 173.076 269.26 167.407C275.744 155.037 282.223 142.667 288.711 130.297C315.751 184.632 342.795 238.96 369.839 293.297ZM284.216 193.602C284.2 193.816 284.33 194.297 284.816 195.288C286.669 199.093 288.525 202.9 290.381 206.707C296.439 219.125 302.497 231.544 308.556 243.96C294.816 233.569 281.079 223.176 267.339 212.783C267.421 202.193 267.502 191.604 267.581 181.011C272.556 184.818 277.525 188.623 282.495 192.428C283.381 193.107 283.904 193.444 284.216 193.602ZM319.865 267.488C320.263 268.035 320.416 267.958 319.865 267.488V267.488ZM320.093 316.16C320.488 314.535 319.949 312.818 317.872 311.939C238.853 278.514 159.83 245.083 80.809 211.656C139.046 199.872 197.279 188.093 255.518 176.311C254.06 192.172 252.609 208.03 251.151 223.89C251.011 225.425 252.104 226.997 253.367 227.749C275.153 240.728 296.939 253.709 318.725 266.69C319.163 266.953 319.46 267.167 319.695 267.351C320.223 268.53 320.746 269.711 321.272 270.89C324.581 278.33 327.895 285.772 331.207 293.211C334.03 299.56 336.853 305.904 339.676 312.251C340.497 314.09 340.739 317.072 340.511 313.316C340.604 314.802 340.693 316.29 340.788 317.776C341.711 332.883 342.646 347.997 343.574 363.107C344.021 370.372 344.467 377.642 344.914 384.909C345.062 387.302 345.207 389.693 345.358 392.088C345.43 393.279 345.337 394.037 345.272 394.414C335.421 407.253 325.576 420.1 315.732 432.942C319.074 420.711 321.907 408.363 321.656 395.814C321.137 369.263 320.614 342.711 320.093 316.16ZM364.516 412.342C364.858 411.846 365.053 411.839 364.516 412.342V412.342ZM232.681 320.993C222.593 320.428 212.502 319.863 202.416 319.302C184.542 318.304 166.669 317.307 148.793 316.304C125.563 285.525 102.332 254.744 79.1021 223.963C130.207 247.542 181.318 271.114 232.423 294.693C255.386 305.286 278.356 315.879 301.316 326.472C301.349 326.914 301.39 327.416 301.463 328.049C302.43 336.502 303.395 344.965 304.358 353.418C305.783 365.881 307.211 378.342 308.632 390.8C286.463 368.36 264.3 345.916 242.13 323.476C239.5 320.814 236.211 321.188 232.681 320.993ZM205.197 -3.33514C88.8672 -3.33514 -11.8863 63.3113 -60.9956 160.5C-62.8886 163.883 -64.7375 167.297 -66.5142 170.765C-66.6607 171.051 -66.763 171.342 -66.8421 171.637C-108.056 257.63 -105.835 357.144 -61.6235 441.583C-61.577 441.667 -61.5072 441.725 -61.4561 441.807C-8.78629 537.976 91.1625 595.93 198.839 597.193C251.393 597.804 302.281 583.174 346.597 557.193C439.881 506.832 503.27 408.193 503.27 294.739C503.27 130.114 369.816 -3.33514 205.197 -3.33514Z" fill="#292929"/>
<path d="M287.108 191.702C287.108 191.702 271.68 183.85 266.389 179.804C266.306 191.062 266.215 202.322 266.129 213.583C280.738 224.634 295.348 235.69 309.957 246.739C303.517 233.532 287.108 191.702 287.108 191.702Z" fill="#292929"/>
<path d="M120.314 19.879L197.141 115.191L95.9531 28.5907L120.314 19.879Z" fill="#292929"/>
<path d="M-69.5391 193.453L-42.4716 147.751L31.0842 105.876L-69.5391 193.453Z" fill="#292929"/>
<path d="M141.773 363.631L344.08 551.824L313.185 563.436L141.773 363.631Z" fill="#292929"/>
<path d="M389.055 320.283L466.15 423.344L475.038 401.641L389.055 320.283Z" fill="#292929"/>
<path d="M319.863 267.487C320.261 268.034 320.414 267.957 319.863 267.487V267.487Z" fill="#292929"/>
<path d="M364.516 412.341C364.857 411.846 365.055 411.839 364.516 412.341V412.341Z" fill="#292929"/>
<path d="M119.363 509.228C119.363 509.228 143.365 379.267 150.632 328.204C172.446 330.951 194.258 333.693 216.072 336.435C220.837 337.032 225.595 337.632 230.358 338.235C230.842 338.295 231.209 338.328 231.544 338.351C239.116 345.121 246.683 351.89 254.26 358.66C272.693 375.135 291.123 391.616 309.563 408.09C309.411 408.667 309.265 409.237 309.118 409.814C307.381 416.567 305.649 423.323 303.907 430.079C301.174 440.73 298.437 451.381 295.697 462.035C294.767 465.66 298.865 469.304 302.26 467.074C325.711 451.697 349.165 436.316 372.623 420.935C375.311 419.172 375.246 415.146 375.767 412.311C377.235 404.302 378.707 396.293 380.169 388.286C383.697 369.074 387.218 349.865 390.746 330.653C391.914 324.281 394.635 317.544 391.737 311.507C386.976 301.583 382.214 291.66 377.449 281.739C360.216 245.828 342.986 209.921 325.751 174.009C316.283 154.283 306.821 134.558 297.349 114.832C296.669 113.421 294.974 112.658 293.49 112.618C230.988 110.949 168.481 109.279 105.979 107.611C82.1486 106.974 58.3183 106.339 34.4835 105.702C27.3532 105.511 16.037 116.118 10.4114 119.593C-6.54443 130.063 -23.5003 140.53 -40.4584 150.997C-41.3584 151.551 -42.2584 152.107 -43.1561 152.665C21.6742 48.8323 146.735 -3.53516 267.114 25.5439C382.672 53.4532 469.432 155.502 481.683 273.1C489.942 352.395 462.916 432.193 410.056 491.479C356.621 551.418 278.56 579 198.839 585.7C181.609 587.149 157.632 581.153 157.632 581.153L119.363 509.228ZM-20.863 469.816C-27.9444 459.107 -35.6444 444.723 -31.577 431.56C-1.00723 362.195 29.5625 292.83 60.1346 223.463C77.8695 245.718 95.6044 267.981 113.339 290.237C122.114 301.246 130.886 312.26 139.66 323.272C138.697 327.76 102.397 511.569 102.397 511.569C102.397 511.569 119.528 554.956 128.095 576.651C87.6695 565.286 50.6091 541.502 19.1997 514.216C4.15789 501.144 -9.85374 486.472 -20.863 469.816ZM-49.5375 181.474C-45.4654 178.683 -41.3979 175.893 -37.3282 173.107C-15.8305 158.367 5.66254 143.63 27.1579 128.893C34.9835 154.725 42.8067 180.558 50.63 206.393C50.4835 206.679 50.3183 207.004 50.116 207.421C48.2067 211.249 46.2997 215.074 44.3904 218.904C37.6625 232.402 30.9346 245.897 24.2044 259.397C-3.10258 314.186 -30.4119 368.974 -57.7188 423.76C-75.7444 385.393 -85.0421 343.995 -85.3816 301.479C-85.1049 269.337 -79.2514 237.886 -65.6561 208.646C-62.1468 201.097 -56.4561 186.218 -49.5375 181.474ZM263.028 152.735C261.458 156.293 259.874 159.856 258.297 163.411C257.939 163.497 257.483 163.597 256.9 163.707C236.472 167.421 216.049 171.142 195.625 174.863C153.325 182.56 111.025 190.26 68.7253 197.96C59.7114 171.102 50.7021 144.244 41.6858 117.386C118.983 121.237 196.283 125.083 273.581 128.937C270.065 136.867 266.546 144.802 263.028 152.735ZM369.839 293.297C373.767 301.181 377.688 309.06 381.611 316.939C381.353 318.335 381.102 319.723 380.849 321.118C379.367 329.193 377.883 337.265 376.404 345.339C372.911 364.358 369.428 383.374 365.935 402.393C365.302 405.846 364.674 409.286 364.044 412.737C363.69 413.021 363.253 413.353 362.579 413.79C359.225 415.993 355.872 418.193 352.514 420.4C343.949 426.011 335.39 431.63 326.83 437.242C333.962 427.935 341.097 418.628 348.237 409.318C350.637 406.181 357.36 400.358 357.086 395.895C356.539 387.025 355.993 378.16 355.451 369.286C354.663 356.479 353.869 343.667 353.083 330.853C352.718 324.923 353.849 316.167 351.365 310.574C344.132 294.297 336.897 278.025 329.667 261.751C329.651 261.702 329.649 261.658 329.63 261.609C321.553 240.49 313.472 219.37 305.395 198.251C302.916 191.772 302.056 188.139 296.149 184.407C287.186 178.742 278.225 173.076 269.26 167.407C275.744 155.037 282.223 142.667 288.711 130.297C315.751 184.632 342.795 238.96 369.839 293.297ZM284.216 193.602C284.2 193.816 284.33 194.297 284.816 195.288C286.669 199.093 288.525 202.9 290.381 206.707C296.439 219.125 302.497 231.544 308.556 243.96C294.816 233.569 281.079 223.176 267.339 212.783C267.421 202.193 267.502 191.604 267.581 181.011C272.556 184.818 277.525 188.623 282.495 192.428C283.381 193.107 283.904 193.444 284.216 193.602ZM319.865 267.488C320.263 268.035 320.416 267.958 319.865 267.488V267.488ZM320.093 316.16C320.488 314.535 319.949 312.818 317.872 311.939C238.853 278.514 159.83 245.083 80.809 211.656C139.046 199.872 197.279 188.093 255.518 176.311C254.06 192.172 252.609 208.03 251.151 223.89C251.011 225.425 252.104 226.997 253.367 227.749C275.153 240.728 296.939 253.709 318.725 266.69C319.163 266.953 319.46 267.167 319.695 267.351C320.223 268.53 320.746 269.711 321.272 270.89C324.581 278.33 327.895 285.772 331.207 293.211C334.03 299.56 336.853 305.904 339.676 312.251C340.497 314.09 340.739 317.072 340.511 313.316C340.604 314.802 340.693 316.29 340.788 317.776C341.711 332.883 342.646 347.997 343.574 363.107C344.021 370.372 344.467 377.642 344.914 384.909C345.062 387.302 345.207 389.693 345.358 392.088C345.43 393.279 345.337 394.037 345.272 394.414C335.421 407.253 325.576 420.1 315.732 432.942C319.074 420.711 321.907 408.363 321.656 395.814C321.137 369.263 320.614 342.711 320.093 316.16ZM364.516 412.342C364.858 411.846 365.053 411.839 364.516 412.342V412.342ZM232.681 320.993C222.593 320.428 212.502 319.863 202.416 319.302C184.542 318.304 166.669 317.307 148.793 316.304C125.563 285.525 102.332 254.744 79.1021 223.963C130.207 247.542 181.318 271.114 232.423 294.693C255.386 305.286 278.356 315.879 301.316 326.472C301.349 326.914 301.39 327.416 301.463 328.049C302.43 336.502 303.395 344.965 304.358 353.418C305.783 365.881 307.211 378.342 308.632 390.8C286.463 368.36 264.3 345.916 242.13 323.476C239.5 320.814 236.211 321.188 232.681 320.993ZM205.197 -3.33514C88.8672 -3.33514 -11.8863 63.3113 -60.9956 160.5C-62.8886 163.883 -64.7375 167.297 -66.5142 170.765C-66.6607 171.051 -66.763 171.342 -66.8421 171.637C-108.056 257.63 -105.835 357.144 -61.6235 441.583C-61.577 441.667 -61.5072 441.725 -61.4561 441.807C-8.78629 537.976 91.1625 595.93 198.839 597.193C251.393 597.804 302.281 583.174 346.597 557.193C439.881 506.832 503.27 408.193 503.27 294.739C503.27 130.114 369.816 -3.33514 205.197 -3.33514Z" fill="#292929"/>
<path d="M287.108 191.702C287.108 191.702 271.68 183.85 266.389 179.804C266.306 191.062 266.215 202.322 266.129 213.583C280.738 224.634 295.348 235.69 309.957 246.739C303.517 233.532 287.108 191.702 287.108 191.702Z" fill="#292929"/>
<path d="M-69.5391 193.453L-42.4716 147.751L31.0842 105.876L-69.5391 193.453Z" fill="#292929"/>
</g>
</svg>
