<svg width="595" height="595" viewBox="0 0 595 595" fill="none" xmlns="http://www.w3.org/2000/svg">
<path d="M213.363 509.228C213.363 509.228 237.365 379.267 244.632 328.204C266.446 330.951 288.258 333.693 310.072 336.435C314.837 337.032 319.595 337.632 324.358 338.235C324.842 338.295 325.209 338.328 325.544 338.351C333.116 345.121 340.683 351.89 348.26 358.66C366.693 375.135 385.123 391.616 403.563 408.09C403.411 408.667 403.265 409.237 403.118 409.814C401.381 416.567 399.649 423.323 397.907 430.079C395.174 440.73 392.437 451.381 389.697 462.035C388.767 465.66 392.865 469.304 396.26 467.074C419.711 451.697 443.165 436.316 466.623 420.935C469.311 419.172 469.246 415.146 469.767 412.311C471.235 404.302 472.707 396.293 474.169 388.286C477.697 369.074 481.218 349.865 484.746 330.653C485.914 324.281 488.635 317.544 485.737 311.507C480.976 301.583 476.214 291.66 471.449 281.739C454.216 245.828 436.986 209.921 419.751 174.009C410.283 154.283 400.821 134.558 391.349 114.832C390.669 113.421 388.974 112.658 387.49 112.618C324.988 110.949 262.481 109.279 199.979 107.611C176.149 106.974 152.318 106.339 128.483 105.702C121.353 105.511 110.037 116.118 104.411 119.593C87.4556 130.063 70.4997 140.53 53.5416 150.997C52.6416 151.551 51.7416 152.107 50.8439 152.665C115.674 48.8323 240.735 -3.53516 361.114 25.5439C476.672 53.4532 563.432 155.502 575.683 273.1C583.942 352.395 556.916 432.193 504.056 491.479C450.621 551.418 372.56 579 292.839 585.7C275.609 587.149 251.632 581.153 251.632 581.153L213.363 509.228ZM73.137 469.816C66.0556 459.107 58.3556 444.723 62.423 431.56C92.9928 362.195 123.563 292.83 154.135 223.463C171.87 245.718 189.604 267.981 207.339 290.237C216.114 301.246 224.886 312.26 233.66 323.272C232.697 327.76 196.397 511.569 196.397 511.569C196.397 511.569 213.528 554.956 222.095 576.651C181.67 565.286 144.609 541.502 113.2 514.216C98.1579 501.144 84.1463 486.472 73.137 469.816ZM44.4625 181.474C48.5346 178.683 52.6021 175.893 56.6718 173.107C78.1695 158.367 99.6625 143.63 121.158 128.893C128.983 154.725 136.807 180.558 144.63 206.393C144.483 206.679 144.318 207.004 144.116 207.421C142.207 211.249 140.3 215.074 138.39 218.904C131.663 232.402 124.935 245.897 118.204 259.397C90.8974 314.186 63.5881 368.974 36.2812 423.76C18.2556 385.393 8.95789 343.995 8.61835 301.479C8.8951 269.337 14.7486 237.886 28.3439 208.646C31.8532 201.097 37.5439 186.218 44.4625 181.474ZM357.028 152.735C355.458 156.293 353.874 159.856 352.297 163.411C351.939 163.497 351.483 163.597 350.9 163.707C330.472 167.421 310.049 171.142 289.625 174.863C247.325 182.56 205.025 190.26 162.725 197.96C153.711 171.102 144.702 144.244 135.686 117.386C212.983 121.237 290.283 125.083 367.581 128.937C364.065 136.867 360.546 144.802 357.028 152.735ZM463.839 293.297C467.767 301.181 471.688 309.06 475.611 316.939C475.353 318.335 475.102 319.723 474.849 321.118C473.367 329.193 471.883 337.265 470.404 345.339C466.911 364.358 463.428 383.374 459.935 402.393C459.302 405.846 458.674 409.286 458.044 412.737C457.69 413.021 457.253 413.353 456.579 413.79C453.225 415.993 449.872 418.193 446.514 420.4C437.949 426.011 429.39 431.63 420.83 437.242C427.962 427.935 435.097 418.628 442.237 409.318C444.637 406.181 451.36 400.358 451.086 395.895C450.539 387.025 449.993 378.16 449.451 369.286C448.663 356.479 447.869 343.667 447.083 330.853C446.718 324.923 447.849 316.167 445.365 310.574C438.132 294.297 430.897 278.025 423.667 261.751C423.651 261.702 423.649 261.658 423.63 261.609C415.553 240.49 407.472 219.37 399.395 198.251C396.916 191.772 396.056 188.139 390.149 184.407C381.186 178.742 372.225 173.076 363.26 167.407C369.744 155.037 376.223 142.667 382.711 130.297C409.751 184.632 436.795 238.96 463.839 293.297ZM378.216 193.602C378.2 193.816 378.33 194.297 378.816 195.288C380.669 199.093 382.525 202.9 384.381 206.707C390.439 219.125 396.497 231.544 402.556 243.96C388.816 233.569 375.079 223.176 361.339 212.783C361.421 202.193 361.502 191.604 361.581 181.011C366.556 184.818 371.525 188.623 376.495 192.428C377.381 193.107 377.904 193.444 378.216 193.602ZM413.865 267.488C414.263 268.035 414.416 267.958 413.865 267.488V267.488ZM414.093 316.16C414.488 314.535 413.949 312.818 411.872 311.939C332.853 278.514 253.83 245.083 174.809 211.656C233.046 199.872 291.279 188.093 349.518 176.311C348.06 192.172 346.609 208.03 345.151 223.89C345.011 225.425 346.104 226.997 347.367 227.749C369.153 240.728 390.939 253.709 412.725 266.69C413.163 266.953 413.46 267.167 413.695 267.351C414.223 268.53 414.746 269.711 415.272 270.89C418.581 278.33 421.895 285.772 425.207 293.211C428.03 299.56 430.853 305.904 433.676 312.251C434.497 314.09 434.739 317.072 434.511 313.316C434.604 314.802 434.693 316.29 434.788 317.776C435.711 332.883 436.646 347.997 437.574 363.107C438.021 370.372 438.467 377.642 438.914 384.909C439.062 387.302 439.207 389.693 439.358 392.088C439.43 393.279 439.337 394.037 439.272 394.414C429.421 407.253 419.576 420.1 409.732 432.942C413.074 420.711 415.907 408.363 415.656 395.814C415.137 369.263 414.614 342.711 414.093 316.16ZM458.516 412.342C458.858 411.846 459.053 411.839 458.516 412.342V412.342ZM326.681 320.993C316.593 320.428 306.502 319.863 296.416 319.302C278.542 318.304 260.669 317.307 242.793 316.304C219.563 285.525 196.332 254.744 173.102 223.963C224.207 247.542 275.318 271.114 326.423 294.693C349.386 305.286 372.356 315.879 395.316 326.472C395.349 326.914 395.39 327.416 395.463 328.049C396.43 336.502 397.395 344.965 398.358 353.418C399.783 365.881 401.211 378.342 402.632 390.8C380.463 368.36 358.3 345.916 336.13 323.476C333.5 320.814 330.211 321.188 326.681 320.993ZM299.197 -3.33514C182.867 -3.33514 82.1137 63.3113 33.0044 160.5C31.1114 163.883 29.2625 167.297 27.4858 170.765C27.3393 171.051 27.237 171.342 27.1579 171.637C-14.0561 257.63 -11.8351 357.144 32.3765 441.583C32.423 441.667 32.4928 441.725 32.5439 441.807C85.2137 537.976 185.163 595.93 292.839 597.193C345.393 597.804 396.281 583.174 440.597 557.193C533.881 506.832 597.27 408.193 597.27 294.739C597.27 130.114 463.816 -3.33514 299.197 -3.33514Z" fill="#292929"/>
</svg>
