<svg width="311" height="505" viewBox="0 0 311 505" fill="none" xmlns="http://www.w3.org/2000/svg">
<mask id="path-1-inside-1_32_1677" fill="white">
<path fill-rule="evenodd" clip-rule="evenodd" d="M311 20C311 8.9543 302.046 0 291 0H20C8.9543 0 0 8.9543 0 20V485C0 496.046 8.95428 505 20 505H84.3652C87.635 505 90 501.847 90 498.577C90 485.275 100.784 474.491 114.086 474.491H262.914C276.216 474.491 287 485.275 287 498.577C287 499.126 286.982 499.671 286.945 500.211C286.782 502.653 288.552 505 291 505C302.046 505 311 496.046 311 485V20Z"/>
</mask>
<path fill-rule="evenodd" clip-rule="evenodd" d="M311 20C311 8.9543 302.046 0 291 0H20C8.9543 0 0 8.9543 0 20V485C0 496.046 8.95428 505 20 505H84.3652C87.635 505 90 501.847 90 498.577C90 485.275 100.784 474.491 114.086 474.491H262.914C276.216 474.491 287 485.275 287 498.577C287 499.126 286.982 499.671 286.945 500.211C286.782 502.653 288.552 505 291 505C302.046 505 311 496.046 311 485V20Z" fill="white"/>
<path d="M286.945 500.211L287.943 500.278L286.945 500.211ZM20 1H291V-1H20V1ZM1 485V20H-1V485H1ZM84.3652 504H20V506H84.3652V504ZM91 498.577C91 485.827 101.336 475.491 114.086 475.491V473.491C100.231 473.491 89 484.723 89 498.577H91ZM114.086 475.491H262.914V473.491H114.086V475.491ZM262.914 475.491C275.664 475.491 286 485.827 286 498.577H288C288 484.723 276.769 473.491 262.914 473.491V475.491ZM286 498.577C286 499.104 285.982 499.626 285.948 500.144L287.943 500.278C287.981 499.715 288 499.148 288 498.577H286ZM310 485C310 495.493 301.493 504 291 504V506C302.598 506 312 496.598 312 485H310ZM310 20V485H312V20H310ZM285.948 500.144C285.755 503.028 287.847 506 291 506V504C289.258 504 287.809 502.278 287.943 500.278L285.948 500.144ZM84.3652 506C88.3482 506 91 502.223 91 498.577H89C89 501.471 86.9219 504 84.3652 504V506ZM-1 485C-1 496.598 8.40199 506 20 506V504C9.50657 504 1 495.493 1 485H-1ZM291 1C301.493 1 310 9.50659 310 20H312C312 8.40202 302.598 -1 291 -1V1ZM20 -1C8.40202 -1 -1 8.40201 -1 20H1C1 9.50658 9.50659 1 20 1V-1Z" fill="#F1F1F1" mask="url(#path-1-inside-1_32_1677)"/>
</svg>
