<svg width="50" height="50" viewBox="0 0 50 50" fill="none" xmlns="http://www.w3.org/2000/svg">
<path d="M21.2891 3.23242C21.0059 3.34961 20.6348 3.67188 20.4785 3.95508C20.4102 4.0625 20.3418 4.74609 20.3125 5.49805L20.2637 6.8457L19.0918 7.23633C18.4473 7.45117 17.3828 7.88086 16.7285 8.20312C16.0645 8.52539 15.498 8.78906 15.459 8.78906C15.4102 8.78906 14.9805 8.38867 14.502 7.91016C13.5547 6.95312 13.1934 6.77734 12.5195 6.89453C12.207 6.94336 11.8066 7.31445 9.58984 9.51172C6.8457 12.2461 6.74805 12.373 6.89453 13.1641C6.94336 13.4473 7.1582 13.7305 7.89062 14.4727L8.81836 15.4297L8.20312 16.709C7.87109 17.4121 7.42188 18.4961 7.2168 19.1211L6.8457 20.2637L5.47852 20.3125C4.00391 20.3613 3.82812 20.4199 3.37891 21.0352C3.18359 21.2988 3.17383 21.416 3.17383 25C3.17383 28.584 3.18359 28.7012 3.37891 28.9648C3.82812 29.5801 4.00391 29.6387 5.47852 29.6875L6.8457 29.7363L7.22656 30.8984C7.44141 31.543 7.87109 32.6074 8.20312 33.2617C8.52539 33.9258 8.78906 34.502 8.78906 34.541C8.78906 34.5801 8.37891 35.0293 7.87109 35.5371C7.1582 36.2793 6.94336 36.5527 6.89453 36.8359C6.74805 37.627 6.8457 37.7539 9.58984 40.4883C11.8066 42.6855 12.207 43.0566 12.5195 43.1055C13.1934 43.2227 13.5547 43.0469 14.502 42.0898C14.9805 41.6113 15.4102 41.2109 15.459 41.2109C15.498 41.2109 16.0645 41.4746 16.7285 41.7969C17.3828 42.1191 18.4473 42.5488 19.0918 42.7637L20.2637 43.1543L20.3125 44.5215C20.3613 45.9961 20.4199 46.1719 21.0352 46.6211C21.2988 46.8164 21.416 46.8262 25 46.8262C28.584 46.8262 28.7012 46.8164 28.9648 46.6211C29.5801 46.1621 29.6387 46.0059 29.668 44.5215C29.6973 43.584 29.7363 43.1445 29.8145 43.1152C31.25 42.6855 32.1289 42.3535 33.2324 41.8164L34.5703 41.1719L35.5273 42.1094C36.2695 42.8418 36.5527 43.0566 36.8359 43.1055C37.627 43.252 37.7539 43.1543 40.4883 40.4102C42.6855 38.1934 43.0566 37.793 43.1055 37.4805C43.2227 36.8066 43.0469 36.4453 42.0898 35.498C41.6113 35.0195 41.2109 34.5898 41.2109 34.541C41.2109 34.502 41.4746 33.9258 41.7969 33.2617C42.1289 32.6074 42.5586 31.543 42.7734 30.8984L43.1543 29.7363L44.5215 29.6875C45.9961 29.6387 46.1719 29.5801 46.6211 28.9648C46.8164 28.7012 46.8262 28.584 46.8262 25C46.8262 21.416 46.8164 21.2988 46.6211 21.0352C46.1719 20.4199 45.9961 20.3613 44.5215 20.3125L43.1543 20.2637L42.7734 19.1016C42.5586 18.457 42.1289 17.3926 41.7969 16.7383C41.4746 16.0742 41.2109 15.498 41.2109 15.459C41.2109 15.4102 41.6113 14.9805 42.0898 14.502C43.0469 13.5547 43.2227 13.1934 43.1055 12.5195C43.0566 12.207 42.6855 11.8066 40.4883 9.58984C37.7539 6.8457 37.627 6.74805 36.8359 6.89453C36.5527 6.94336 36.2695 7.1582 35.5273 7.89062L34.5703 8.82812L33.2324 8.18359C32.1289 7.64648 31.25 7.31445 29.8145 6.88477C29.7363 6.85547 29.6973 6.41602 29.668 5.47852C29.6387 3.99414 29.5801 3.83789 28.9648 3.37891C28.7109 3.18359 28.5645 3.17383 25.1172 3.1543C22.8711 3.14453 21.4453 3.17383 21.2891 3.23242ZM29.8242 16.084C33.9062 18.1152 34.209 18.3105 34.3262 18.9648C34.3555 19.1406 34.375 21.4648 34.3555 24.1211L34.3262 28.9551L34.082 29.4434C33.6328 30.3613 33.3105 30.5762 29.1113 32.8125C26.9336 33.9648 25.0879 34.9121 25 34.9121C24.9121 34.9121 23.0664 33.9648 20.8887 32.8125C16.6895 30.5762 16.3672 30.3613 15.918 29.4434L15.6738 28.9551L15.6445 23.9746L15.6152 18.9941L15.8398 18.5547C16.0449 18.1445 16.1523 18.0762 17.334 17.4805C20.4199 15.9277 24.0918 14.1699 24.3164 14.1211C24.4531 14.1016 24.873 14.0918 25.2441 14.1113C25.9082 14.1504 26.0352 14.209 29.8242 16.084Z" fill="white"/>
<path d="M21.2988 17.2852C19.4629 18.1934 17.9688 18.9648 17.9688 18.9941C17.9688 19.0234 19.5508 19.834 21.4844 20.8008L25 22.5586L28.5156 20.8008C30.4492 19.834 32.0312 19.0234 32.0312 18.9941C32.0312 18.9648 30.5371 18.1934 28.7012 17.2852C26.1133 15.9863 25.293 15.625 25 15.625C24.707 15.625 23.8867 15.9863 21.2988 17.2852Z" fill="white"/>
<path d="M17.1875 24.4141C17.1875 28.7109 17.1973 28.8281 17.6855 29.2578C17.8125 29.3652 19.1113 30.0879 20.5566 30.8594C22.0117 31.6211 23.4277 32.3828 23.7109 32.5391L24.2188 32.8223V28.3789V23.9258L20.7031 22.168L17.1875 20.4102V24.4141Z" fill="white"/>
<path d="M29.2773 22.1777L25.7812 23.9258V28.3789V32.832L26.3965 32.4902C26.7285 32.3047 28.1738 31.5332 29.6094 30.7617C32.3047 29.3359 32.6563 29.082 32.7637 28.4863C32.793 28.3105 32.8027 26.4355 32.793 24.3066L32.7637 20.4297L29.2773 22.1777Z" fill="white"/>
</svg>
