<svg width="50" height="50" viewBox="0 0 50 50" fill="none" xmlns="http://www.w3.org/2000/svg">
<path d="M38.5705 14.6403C37.7281 14.084 37.0237 13.0779 36.7542 12.0711L36.7541 12.071C36.7416 12.0238 36.7292 11.9801 36.7174 11.9388L36.7171 11.9376C36.7055 11.897 36.6945 11.8583 36.6851 11.8218C36.666 11.7484 36.6518 11.6791 36.6511 11.6117C36.6496 11.4688 36.7087 11.3489 36.8569 11.2096C37.002 11.073 37.2405 10.9104 37.6117 10.6802C37.8875 10.5091 38.2398 10.2989 38.6863 10.0324C38.8425 9.93922 39.0102 9.83914 39.1902 9.73145C39.8812 9.31759 40.5293 8.92331 41.0162 8.62181C41.2596 8.47105 41.4626 8.3436 41.6104 8.24857C41.6844 8.20104 41.7443 8.16179 41.7884 8.13189C41.8344 8.10074 41.859 8.08249 41.8664 8.07573L41.8676 8.0747C42.0919 7.87841 42.1519 7.49138 42.0013 7.2115C41.9204 7.06229 41.7452 6.88525 41.4963 6.6967C41.249 6.50944 40.9349 6.31532 40.5838 6.13051C39.8811 5.76072 39.0353 5.43115 38.2885 5.26863C37.5075 5.09851 36.1653 5.06773 35.4407 5.20648C33.9856 5.48513 32.6221 6.19741 31.4589 7.29077C29.4524 9.1884 28.4101 11.2576 28.4101 13.3271C28.4101 13.6892 28.3709 14.1933 28.3231 14.456L28.3231 14.4561C28.2034 15.1103 27.705 16.0972 27.1833 16.7059C27.0675 16.841 26.9598 16.9815 26.8804 17.0991C26.8406 17.158 26.8086 17.2103 26.7864 17.2526C26.763 17.2971 26.7549 17.3224 26.754 17.3315C26.739 17.5879 26.7693 17.7706 26.8484 17.9366C26.8711 17.9781 26.8863 18.0037 26.9131 18.0307C26.9411 18.0589 26.9847 18.0913 27.0672 18.1386C27.2332 18.2335 27.5384 18.3785 28.1453 18.6643L28.1454 18.6644C29.0435 19.0898 30.0027 19.7741 30.8122 20.5914C31.3973 21.1765 31.6842 21.6464 31.9219 22.3832L31.922 22.3836C32.0122 22.6692 32.1619 22.8663 32.3412 22.971C32.5192 23.075 32.7343 23.0928 32.9677 23.0052C32.9891 22.9972 33.0339 22.97 33.1013 22.9204C33.1664 22.8724 33.2469 22.8078 33.3375 22.7308C33.5186 22.5768 33.7379 22.3749 33.9516 22.1613L33.9521 22.1608L34.741 21.3875L34.7666 21.3624L34.8017 21.37L35.3094 21.4793L35.3095 21.4793C36.4513 21.7262 38.2817 21.5563 39.5212 21.0915C42.1792 20.0919 44.1397 17.8136 44.7286 15.0473L44.7286 15.0472C44.8214 14.6143 44.8796 14.0852 44.8961 13.6216C44.9043 13.3899 44.9021 13.1757 44.8888 12.9989C44.8753 12.8199 44.8509 12.6865 44.8185 12.6115C44.681 12.2931 44.3421 12.0941 44.0239 12.143C44.0237 12.1431 44.0231 12.1432 44.0224 12.1434L44.0172 12.1449C44.0128 12.1463 44.0071 12.1483 44 12.151C43.9858 12.1565 43.9674 12.1642 43.9449 12.1744C43.9 12.1948 43.8407 12.2239 43.7685 12.2609C43.6242 12.3349 43.4307 12.4394 43.2015 12.5671C42.7434 12.8225 42.1445 13.1697 41.5162 13.5483C40.8872 13.9273 40.3049 14.2712 39.8749 14.5204C39.66 14.6449 39.4828 14.746 39.3569 14.8159C39.2939 14.8509 39.2434 14.8783 39.207 14.8971C39.189 14.9065 39.1737 14.9141 39.162 14.9194C39.1562 14.9221 39.1503 14.9246 39.1449 14.9266C39.1422 14.9276 39.1388 14.9288 39.135 14.9298C39.1323 14.9306 39.1246 14.9326 39.1151 14.9326C39.0978 14.9326 39.0804 14.9276 39.0683 14.9235C39.0542 14.9188 39.0384 14.9123 39.0216 14.9048C38.9877 14.8896 38.9459 14.8681 38.8992 14.8422C38.8056 14.7905 38.6889 14.7192 38.5705 14.6403ZM38.5705 14.6403C38.5705 14.6403 38.5705 14.6403 38.5706 14.6404L38.6073 14.5847L38.5703 14.6402C38.5704 14.6402 38.5704 14.6402 38.5705 14.6403Z" fill="white" stroke="url(#paint0_linear_20_280)" stroke-width="0.133333"/>
<path d="M6.90829 6.92971C7.72066 6.10954 7.93156 5.93769 8.50959 5.65649C8.8689 5.48465 9.36101 5.28156 9.59534 5.21907L6.90829 6.92971ZM6.90829 6.92971C5.54134 8.29667 5.10391 9.14809 5.01018 10.5697L6.90829 6.92971ZM9.612 5.28362C9.38373 5.3446 8.89672 5.54524 8.53835 5.71664C8.25209 5.85591 8.05964 5.96668 7.83838 6.14311C7.61537 6.32095 7.36218 6.5662 6.95566 6.97663L6.95544 6.97686C6.27383 7.65845 5.82826 8.20741 5.54093 8.75997C5.2543 9.31117 5.12314 9.86987 5.0767 10.574C5.02286 11.4282 5.18393 12.1822 5.60129 13.0401L5.60138 13.0403C5.6812 13.2058 5.73964 13.3263 5.86121 13.4947C5.98379 13.6644 6.17124 13.8838 6.50964 14.2431C7.18635 14.9618 8.45852 16.232 11.0016 18.7712L11.0016 18.7712C13.7717 21.5413 15.1717 22.9393 16.0737 23.7293C16.524 24.1236 16.8483 24.3648 17.1554 24.5489C17.4629 24.7332 17.7549 24.8614 18.1438 25.0295L18.1439 25.0296C18.6505 25.2495 18.9993 25.4507 19.2766 25.728C19.5539 26.0053 19.7551 26.354 19.975 26.8605C20.3861 27.7992 20.812 28.4652 21.5105 29.2568L21.5106 29.2569C21.8482 29.6411 22.1353 29.8964 22.4207 30.0561C22.7044 30.2149 22.9897 30.281 23.3274 30.281C23.6298 30.281 23.8574 30.2428 24.081 30.137C24.3062 30.0305 24.5323 29.8531 24.8275 29.5656L24.828 29.5652L25.3357 29.0809L25.3828 29.0359L25.4289 29.082L30.2171 33.8702L35.0132 38.6663L35.0317 38.6848L35.0327 38.711L35.0639 39.5781L35.0639 39.5784C35.0757 39.9578 35.0893 40.1833 35.1224 40.3611C35.155 40.5363 35.2069 40.6669 35.2993 40.8556L35.2994 40.8558C35.3923 41.0474 35.4758 41.1971 35.5995 41.3416C35.7233 41.4862 35.8899 41.6285 36.1519 41.8007C36.6779 42.1466 37.5757 42.6054 39.2529 43.442L39.253 43.4421C40.7028 44.1689 41.4742 44.5507 41.9193 44.745C42.1421 44.8423 42.2794 44.891 42.3771 44.9129C42.4707 44.934 42.5282 44.9307 42.5929 44.9203C42.7045 44.8956 42.8125 44.8466 42.9871 44.7097C43.1642 44.5709 43.4058 44.345 43.7848 43.9699C44.2501 43.5085 44.5339 43.2109 44.7016 42.9924C44.8663 42.7778 44.9123 42.648 44.9133 42.5218C44.9125 42.5186 44.911 42.5136 44.9086 42.5063C44.9037 42.4919 44.8961 42.4718 44.8856 42.4459C44.8647 42.3942 44.8336 42.3223 44.7932 42.2322C44.7125 42.0521 44.5956 41.8015 44.4511 41.4985C44.1624 40.8926 43.7642 40.0787 43.3269 39.2041L43.3269 39.204C42.655 37.8563 42.2436 37.0492 41.9661 36.5478C41.6882 36.0456 41.5481 35.8569 41.4203 35.74C41.1508 35.4974 40.9261 35.3474 40.6496 35.2527C40.3712 35.1574 40.0357 35.1166 39.5413 35.101L39.541 35.101L38.674 35.0697L38.6478 35.0688L38.6292 35.0502L33.8332 30.2542L29.0371 25.4581L28.9904 25.4114L29.0367 25.3643L29.4737 24.9195C29.4738 24.9194 29.4739 24.9193 29.4739 24.9192C29.7869 24.5945 29.9596 24.3941 30.0609 24.1962C30.1607 24.001 30.1934 23.8036 30.2128 23.4777L30.2128 23.4771C30.2396 23.0826 30.1972 22.7873 30.0483 22.4997C29.898 22.2095 29.6364 21.9213 29.212 21.5476L29.2119 21.5475C28.4047 20.8334 27.7622 20.4232 26.8078 20.0042C26.2981 19.7807 25.9549 19.5873 25.6842 19.3176C25.4135 19.0479 25.22 18.7066 25.0003 18.1966C24.6623 17.4234 24.4761 17.0158 23.7116 16.135C22.9431 15.2496 21.594 13.8907 18.9294 11.2183C17.379 9.66396 16.1099 8.40661 15.1885 7.50962C14.7278 7.0611 14.3542 6.70287 14.0759 6.44274C13.7965 6.18153 13.6168 6.02274 13.541 5.96901C12.7486 5.4306 12.074 5.22291 10.9604 5.19197C10.3062 5.17641 9.90749 5.20786 9.612 5.28362Z" fill="white" stroke="url(#paint1_linear_20_280)" stroke-width="0.133333"/>
<path d="M16.5762 27.2963C16.1146 27.7102 15.3941 28.082 14.7282 28.2408C14.4622 28.313 13.7229 28.399 13.0759 28.438C11.6841 28.5391 10.7478 28.7641 9.73404 29.2593L9.73385 29.2594C8.47062 29.8717 7.21467 30.9497 6.48748 32.0482L6.48744 32.0483C5.49482 33.545 4.96089 35.4597 5.08451 37.0365C5.12752 37.5486 5.19151 37.8645 5.30522 38.061C5.36081 38.1571 5.42804 38.2239 5.51129 38.2713C5.59539 38.3192 5.69923 38.3491 5.83065 38.3661C5.94538 38.3791 6.05474 38.3666 6.46415 38.1497C6.87322 37.933 7.56848 37.5202 8.85027 36.7504L8.85042 36.7503L11.6234 35.0943L11.6557 35.075L11.6889 35.0927L12.0402 35.2801C12.0403 35.2801 12.0403 35.2801 12.0403 35.2801C12.3228 35.4295 12.6431 35.6989 12.9338 36.0123C13.2249 36.3262 13.4906 36.6886 13.662 37.0274C13.7972 37.2938 13.9469 37.6961 14.0529 38.0396C14.106 38.2115 14.1486 38.3706 14.1732 38.492C14.1854 38.5524 14.1936 38.6057 14.1958 38.6474C14.1969 38.6681 14.1968 38.6886 14.194 38.7069C14.1916 38.722 14.1855 38.7502 14.1627 38.7708C14.1587 38.7744 14.1551 38.7769 14.1551 38.7769L14.1498 38.7805L14.1364 38.7891C14.1255 38.796 14.1101 38.8055 14.0905 38.8176C14.0512 38.8417 13.9944 38.8762 13.922 38.92C13.7773 39.0076 13.57 39.1323 13.3156 39.2852C12.9853 39.4836 12.5755 39.7294 12.1202 40.0025C11.8743 40.15 11.6152 40.3054 11.3482 40.4656C10.5868 40.9225 9.87444 41.3577 9.34084 41.6923C9.07399 41.8596 8.85218 42.0016 8.69143 42.1084C8.61099 42.1618 8.54631 42.2061 8.49909 42.2403C8.47546 42.2574 8.45667 42.2716 8.44269 42.2828C8.43571 42.2885 8.43025 42.2931 8.42615 42.2968L8.42142 42.3013L8.42013 42.3026L8.41979 42.303L8.41971 42.3031L8.41968 42.3031L8.41975 42.3032L8.41719 42.3058C8.34094 42.3854 8.28371 42.5279 8.26028 42.6919C8.23706 42.8545 8.24885 43.0259 8.29843 43.1573C8.31164 43.1904 8.34636 43.2371 8.40835 43.2961C8.4692 43.354 8.55108 43.4189 8.65075 43.4886C8.84995 43.6278 9.11539 43.783 9.414 43.9365C10.0116 44.2435 10.7351 44.5401 11.3146 44.6869L11.3147 44.6869C13.9239 45.3527 16.4862 44.6568 18.5091 42.7502C20.5156 40.8526 21.558 38.7834 21.558 36.7138C21.558 35.435 21.8902 34.4352 22.6278 33.5468C22.9059 33.2068 22.9974 33.0164 23.019 32.794L23.0191 32.7925C23.0448 32.5761 23.0061 32.4238 22.8806 32.2905C22.7495 32.1514 22.5185 32.0268 22.1406 31.8865C21.7504 31.7446 21.4459 31.5977 21.1576 31.3942C20.8695 31.1908 20.6001 30.9328 20.2782 30.5717C19.4781 29.6775 19.0134 29.0005 18.5806 28.0956L18.5803 28.0949C18.3693 27.6416 18.1588 27.1973 18.1125 27.1046C18.0966 27.0729 18.0626 27.0323 18.0117 26.9877C17.9619 26.944 17.8999 26.9 17.8335 26.8607C17.7671 26.8214 17.6975 26.7877 17.6328 26.7639C17.5672 26.7398 17.5107 26.7275 17.4691 26.7275C17.4642 26.7275 17.4513 26.7291 17.4293 26.7348C17.4085 26.7402 17.3832 26.7483 17.3553 26.7585C17.2995 26.779 17.2359 26.8071 17.1802 26.8368L17.1786 26.8376C17.1223 26.8657 17.0271 26.9306 16.9159 27.0155C16.806 27.0994 16.6843 27.1998 16.5762 27.2963ZM16.5762 27.2963L16.5317 27.2466M16.5762 27.2963C16.5762 27.2963 16.5762 27.2963 16.5761 27.2964L16.5317 27.2466M16.5317 27.2466C16.7505 27.0513 17.0238 26.8404 17.1488 26.778L13.0714 28.3714C13.7197 28.3324 14.454 28.2465 14.7117 28.1762C15.3679 28.0199 16.0787 27.6528 16.5317 27.2466Z" fill="white" stroke="url(#paint2_linear_20_280)" stroke-width="0.133333"/>
<defs>
<linearGradient id="paint0_linear_20_280" x1="26.6836" y1="26.3218" x2="53.6956" y2="-4.10813" gradientUnits="userSpaceOnUse">
<stop stop-color="#F3F3F3"/>
<stop offset="1" stop-color="#9D9FA8"/>
</linearGradient>
<linearGradient id="paint1_linear_20_280" x1="5" y1="52.0406" x2="64.6473" y2="-14.5648" gradientUnits="userSpaceOnUse">
<stop stop-color="#F3F3F3"/>
<stop offset="1" stop-color="#9D9FA8"/>
</linearGradient>
<linearGradient id="paint2_linear_20_280" x1="5.00024" y1="48.2404" x2="32.4792" y2="18.0483" gradientUnits="userSpaceOnUse">
<stop stop-color="#F3F3F3"/>
<stop offset="1" stop-color="#9D9FA8"/>
</linearGradient>
</defs>
</svg>
