<svg width="50" height="50" viewBox="0 0 50 50" fill="none" xmlns="http://www.w3.org/2000/svg">
<path d="M11.8636 5.74733L11.8642 5.74707C12.3627 5.51115 12.691 5.39108 13.2781 5.35803C13.8713 5.32464 14.7264 5.38026 16.2781 5.50169C17.0328 5.5601 17.7337 5.61401 18.256 5.65332C18.7757 5.69244 19.1237 5.71753 19.1674 5.71753C19.1892 5.71753 19.2095 5.70822 19.22 5.70321C19.2338 5.69656 19.2497 5.68749 19.2667 5.67685C19.301 5.65546 19.3452 5.62471 19.3976 5.58621C19.5025 5.50902 19.6438 5.39788 19.8115 5.26115C20.1471 4.98751 20.5903 4.60953 21.0625 4.1913C22.7795 2.68109 23.2627 2.3595 24.0718 2.1484C24.359 2.07445 24.7691 2.05176 25.1891 2.07627C25.6086 2.10075 26.0309 2.1719 26.342 2.28143C27.0104 2.51887 27.3511 2.76066 29.1232 4.34385L29.1233 4.34388C29.5416 4.7172 29.9377 5.05704 30.2396 5.30378C30.3905 5.42706 30.5185 5.52761 30.6142 5.59758C30.662 5.63246 30.7027 5.66049 30.7348 5.68006C30.7507 5.68979 30.7657 5.69819 30.7792 5.70437C30.7897 5.70923 30.809 5.71753 30.8299 5.71753C30.8737 5.71753 31.2238 5.69244 31.747 5.65219C32.2727 5.61175 32.9782 5.55558 33.7375 5.49268C36.5795 5.26785 36.9871 5.27905 37.7886 5.56086C38.1962 5.70995 38.6382 5.99651 39.0266 6.34726C39.4153 6.69813 39.746 7.10919 39.9344 7.50355L39.9349 7.50463C39.9614 7.55761 40.0043 7.67613 40.0597 7.8501C40.1146 8.02223 40.1804 8.24411 40.2527 8.50035C40.3973 9.01277 40.5679 9.66117 40.7294 10.3209L41.3134 12.7287L41.32 12.756L41.3442 12.7703L43.8239 14.2438C44.6681 14.7468 45.323 15.1527 45.807 15.472C46.2921 15.7921 46.6017 16.0226 46.7585 16.1749C47.6419 17.0497 48.0742 18.3576 47.8626 19.5479L47.8624 19.5491C47.8321 19.7395 47.7199 20.102 47.5343 20.6127C47.3494 21.1214 47.0937 21.7718 46.7794 22.5351L11.8636 5.74733ZM11.8636 5.74733C11.1741 6.0656 10.5472 6.62267 10.2044 7.22046L10.2038 7.22132M11.8636 5.74733L10.2038 7.22132M10.2038 7.22132C10.1961 7.23442 10.1809 7.26732 10.1581 7.32254C10.1361 7.37616 10.1085 7.44698 10.0761 7.53278C10.0113 7.70432 9.92802 7.93428 9.83269 8.20324C9.64205 8.74107 9.40378 9.4337 9.1708 10.1242C8.93782 10.8147 8.71022 11.5029 8.54091 12.0317C8.45624 12.2962 8.38625 12.5205 8.33748 12.6852C8.31308 12.7676 8.29413 12.8346 8.28135 12.884C8.27494 12.9088 8.27024 12.9286 8.26718 12.9434C8.26508 12.9535 8.26415 12.9595 8.26375 12.9625C8.26349 12.9643 8.26345 12.965 8.26345 12.9646C8.26345 12.9825 8.2563 12.9951 8.25418 12.9987C8.25117 13.0039 8.24807 13.0076 8.24639 13.0096C8.24291 13.0136 8.2395 13.0167 8.23761 13.0183C8.23346 13.0219 8.22869 13.0255 8.22432 13.0287C8.21521 13.0354 8.20254 13.044 8.18708 13.0542C8.15593 13.0748 8.11049 13.1037 8.05266 13.1398C7.93685 13.2121 7.76974 13.3142 7.56411 13.4384C7.15277 13.6867 6.58647 14.0238 5.96632 14.3878L5.96625 14.3879M10.2038 7.22132L5.96625 14.3879M5.96625 14.3879C5.17592 14.8504 4.57284 15.2181 4.12841 15.5103C3.68271 15.8033 3.40065 16.0178 3.24896 16.1738L3.24807 16.1747M5.96625 14.3879L3.24807 16.1747M3.24807 16.1747C2.2841 17.1298 1.85245 18.5705 2.1696 19.8126L2.16994 19.8141M3.24807 16.1747L2.16994 19.8141M2.16994 19.8141C2.19555 19.9251 2.32796 20.2901 2.5232 20.7957C2.7173 21.2983 2.97095 21.9336 3.23588 22.5802L4.19727 24.9252L4.20763 24.9505M2.16994 19.8141L4.20763 24.9505M4.20763 24.9505L4.19728 24.9758M4.20763 24.9505L4.19728 24.9758M4.19728 24.9758L3.26285 27.258L3.26267 27.2584M4.19728 24.9758L3.26267 27.2584M3.26267 27.2584C3.0023 27.8824 2.75092 28.5063 2.55571 29.0078C2.35983 29.511 2.22228 29.8865 2.18742 30.0171C1.94947 30.9339 2.0902 31.9766 2.56781 32.8613C2.98865 33.6239 3.72539 34.1993 6.24495 35.684L6.245 35.684M3.26267 27.2584L6.245 35.684M6.245 35.684C6.89209 36.066 7.48537 36.4211 7.91922 36.6852C8.1361 36.8173 8.31339 36.9267 8.43772 37.0055C8.49981 37.0449 8.54914 37.0769 8.58373 37.1003C8.60092 37.112 8.61518 37.122 8.62576 37.13C8.63096 37.1339 8.63615 37.138 8.64065 37.142C8.64287 37.144 8.64568 37.1466 8.6485 37.1497C8.64979 37.1511 8.65259 37.1542 8.65564 37.1586C8.66094 37.1659 8.66393 37.1726 8.66481 37.1745L8.66497 37.1749C8.66732 37.18 8.66952 37.1857 8.67153 37.1913C8.6756 37.2025 8.68033 37.2172 8.68559 37.2346C8.69619 37.2697 8.70995 37.319 8.72643 37.3805C8.75944 37.5038 8.80392 37.6784 8.85673 37.8907C8.96238 38.3156 9.10169 38.893 9.24994 39.5175C9.40699 40.1636 9.57298 40.7939 9.7176 41.3029C9.86259 41.8132 9.98476 42.1966 10.0544 42.3536C10.3896 43.0676 11.1598 43.8462 11.8637 44.1717L11.8637 44.1717M6.245 35.684L11.8637 44.1717M11.8637 44.1717L11.8646 44.1722M11.8637 44.1717L11.8646 44.1722M11.8646 44.1722C12.3261 44.394 12.6522 44.5077 13.2322 44.5408C13.8176 44.5742 14.6595 44.5253 16.1525 44.4173C17.6334 44.3007 18.9395 44.2195 19.0686 44.2195C19.1283 44.2195 19.2015 44.2507 19.2837 44.298C19.3691 44.3473 19.4759 44.4211 19.6065 44.5206C19.868 44.7198 20.2311 45.0266 20.7208 45.4579C21.4833 46.1218 22.2727 46.8035 22.4717 46.9754C23.7097 47.9741 25.3703 48.1677 26.7745 47.4613C26.9343 47.3791 27.2193 47.1787 27.6001 46.8787C27.9796 46.5798 28.4503 46.1853 28.9798 45.7186L28.9799 45.7186M11.8646 44.1722L28.9799 45.7186M28.9799 45.7186C29.7648 45.0278 30.1945 44.6546 30.4695 44.4546C30.6074 44.3543 30.7103 44.2946 30.8026 44.2606C30.8968 44.226 30.9762 44.2195 31.0635 44.2195C31.2646 44.2195 32.4452 44.3007 33.6745 44.3994L33.6745 44.3994M28.9799 45.7186L33.6745 44.3994M33.6745 44.3994C36.4646 44.6244 36.8809 44.6221 37.5485 44.4113L37.5486 44.4112M33.6745 44.3994L37.5486 44.4112M37.5486 44.4112C38.5925 44.0839 39.4224 43.3947 39.8991 42.468M37.5486 44.4112L39.8991 42.468M39.8991 42.468C39.9989 42.2683 40.1522 41.7902 40.3558 41.0386C40.5588 40.2895 40.8102 39.2751 41.1066 38.0086L39.8991 42.468ZM45.7911 24.9251L46.7794 22.5352L41.1066 38.0084L41.2953 37.191L41.3017 37.1634L41.326 37.1488L43.7699 35.6843L43.77 35.6842C46.3622 34.1361 47.0175 33.6239 47.4293 32.8615C47.9071 31.9768 48.0478 30.9249 47.8099 30.017C47.775 29.8865 47.6374 29.511 47.4416 29.0078C47.2464 28.5063 46.995 27.8824 46.7346 27.2584L46.7345 27.2582L45.7911 24.976L45.7806 24.9505L45.7911 24.9251ZM27.5173 10.2934L27.5175 10.2934C30.6122 10.8618 33.293 12.2517 35.4681 14.4088L35.4682 14.4089C37.6974 16.629 39.0873 19.3009 39.6827 22.4674L39.6828 22.4679C39.7872 23.0489 39.8388 24.0107 39.8388 24.9685C39.8388 25.9263 39.7872 26.8881 39.6828 27.4691L39.6827 27.4696C38.5006 33.7951 33.8252 38.4705 27.4997 39.6526L27.4993 39.6526C26.9182 39.757 25.9565 39.8087 24.9986 39.8087C24.0408 39.8087 23.0791 39.757 22.498 39.6526L22.4975 39.6525C19.3309 39.0571 16.596 37.6222 14.3938 35.3839C12.2095 33.1724 10.8288 30.4465 10.2695 27.2262L10.2694 27.2256C10.1965 26.7838 10.1607 25.8734 10.1607 24.9685C10.1607 24.0636 10.1965 23.1533 10.2694 22.7114L10.2695 22.7108C11.4515 15.9346 16.569 11.0243 23.346 10.167L23.3461 10.167C23.783 10.1124 24.6007 10.1037 25.4185 10.1284C26.2364 10.1531 27.0628 10.2116 27.5173 10.2934Z" fill="white" stroke="url(#paint0_linear_20_135)" stroke-width="0.133333"/>
<path d="M16.4656 33.4213L16.4657 33.4214C18.2442 35.2268 20.227 36.2987 22.7661 36.8262C23.285 36.9326 24.1331 36.9866 24.991 36.9866C25.8487 36.9866 26.7083 36.9327 27.25 36.8261C29.6629 36.3435 31.6638 35.2717 33.4517 33.5017L33.4518 33.5016C35.2572 31.7231 36.3291 29.7403 36.8566 27.2011C36.963 26.6777 37.0169 25.8251 37.0169 24.9685C37.0169 24.1119 36.963 23.2593 36.8566 22.7359C36.5079 21.0817 35.8731 19.5532 34.9615 18.1767C34.6687 17.7376 34.0908 17.0856 33.4706 16.4676C32.8503 15.8496 32.1938 15.2717 31.746 14.9791L31.7456 14.9789C30.3957 14.0849 28.8404 13.4325 27.3129 13.1288L27.3127 13.1287C26.986 13.0625 26.2452 13.002 25.5067 12.9671C24.768 12.9323 24.0438 12.9237 23.7491 12.9589C21.7645 13.2092 19.8606 13.9065 18.2072 15.0057C17.7817 15.2894 17.1319 15.8673 16.5148 16.4844C15.8977 17.1014 15.3199 17.7512 15.0362 18.1767C14.1245 19.5531 13.4898 21.0816 13.1411 22.7357C13.0346 23.2592 12.9807 24.1118 12.9807 24.9685C12.9807 25.8252 13.0346 26.6778 13.1411 27.2012C13.6686 29.7136 14.6868 31.6247 16.4656 33.4213ZM32.3968 19.6978L32.3968 19.6978C32.6119 19.8078 32.8001 19.997 32.9343 20.2153C33.0685 20.4336 33.1519 20.6859 33.1519 20.9252C33.1519 21.0109 33.1297 21.1235 33.0977 21.2356C33.0654 21.3488 33.0214 21.4669 32.9748 21.5649L32.9748 21.5649L32.9737 21.5671C32.9637 21.5862 32.9456 21.6109 32.9241 21.6382C32.9015 21.6668 32.8719 21.7021 32.836 21.7434C32.7641 21.8261 32.6654 21.9346 32.5439 22.0651C32.3009 22.3262 31.9654 22.6765 31.568 23.0854C30.7731 23.9034 29.7295 24.9571 28.6803 26.004C27.6312 27.0509 26.5763 28.0912 25.7589 28.8821C25.3503 29.2776 25.0007 29.611 24.7408 29.8518C24.6109 29.9722 24.503 30.0698 24.4212 30.1406C24.3803 30.176 24.3455 30.205 24.3174 30.227C24.2907 30.2479 24.266 30.2658 24.2469 30.2753L24.2464 30.2756C23.84 30.4741 23.4315 30.4636 23.0098 30.2481L23.0093 30.2478C22.9762 30.2306 22.9257 30.1922 22.8644 30.1415C22.8013 30.0892 22.7215 30.0193 22.6277 29.9346C22.4402 29.7651 22.195 29.5348 21.9124 29.2636C21.347 28.7213 20.6301 28.0145 19.92 27.3022C19.21 26.5899 18.5066 25.8719 17.9681 25.307C17.699 25.0247 17.4707 24.7803 17.3034 24.5939C17.2198 24.5007 17.151 24.4216 17.0998 24.3593C17.0504 24.2991 17.0128 24.2491 16.9965 24.2166C16.4198 23.0631 17.7025 21.7804 18.856 22.3571C18.8836 22.3709 18.9246 22.4012 18.9731 22.4402C19.0236 22.4807 19.0875 22.535 19.1629 22.6012C19.3137 22.7337 19.5122 22.9154 19.7444 23.1329C20.2088 23.5681 20.809 24.1481 21.4338 24.7684L21.434 24.7686L23.6511 26.9857L27.2249 23.4208L27.225 23.4207C28.218 22.4322 29.1527 21.5155 29.8572 20.8357C30.2094 20.4958 30.5043 20.215 30.7202 20.014C30.8281 19.9136 30.9166 19.8328 30.9828 19.7744C31.0159 19.7452 31.0438 19.7213 31.0659 19.7033C31.0867 19.6863 31.1061 19.6714 31.1208 19.6631L31.1208 19.6631L31.1231 19.6619C31.513 19.4622 31.958 19.4738 32.3968 19.6978Z" fill="white" stroke="url(#paint1_linear_20_135)" stroke-width="0.133333"/>
<defs>
<linearGradient id="paint0_linear_20_135" x1="2" y1="56.0687" x2="70.7496" y2="-20.564" gradientUnits="userSpaceOnUse">
<stop stop-color="#F3F3F3"/>
<stop offset="1" stop-color="#9D9FA8"/>
</linearGradient>
<linearGradient id="paint1_linear_20_135" x1="12.9141" y1="41.3263" x2="49.103" y2="1.04653" gradientUnits="userSpaceOnUse">
<stop stop-color="#F3F3F3"/>
<stop offset="1" stop-color="#9D9FA8"/>
</linearGradient>
</defs>
</svg>
