<svg width="240" height="240" viewBox="0 0 240 240" fill="none" xmlns="http://www.w3.org/2000/svg">
<g opacity="0.1" clip-path="url(#clip0_20_140)">
<path d="M62.9881 52.6637C31.4685 68.4495 5.71289 81.4311 5.71289 81.5869C5.71289 81.7427 31.5205 94.7763 63.0919 110.562L120.471 139.226L177.85 110.562C209.421 94.7763 235.229 81.7427 235.229 81.5869C235.229 81.3792 120.679 23.8963 120.315 24.0002C120.263 24.0002 94.4557 36.878 62.9881 52.6637Z" fill="white"/>
<path d="M15.2155 105.629C9.97088 108.225 5.71289 110.51 5.71289 110.666C5.71289 110.822 31.5205 123.855 63.0919 139.641L120.471 168.304L177.85 139.641C209.421 123.855 235.229 110.822 235.229 110.666C235.229 110.51 230.919 108.225 225.623 105.577L216.016 100.8L168.763 124.426C142.799 137.408 121.042 148.053 120.471 148.053C119.9 148.053 98.1425 137.408 72.1791 124.426C46.2157 111.445 24.8738 100.8 24.8219 100.852C24.7181 100.852 20.4082 102.981 15.2155 105.629Z" fill="white"/>
<path d="M0 121.051V124.686L58.1579 153.765L116.316 182.844V179.209V175.574L58.1579 146.495L0 117.416V121.051Z" fill="white"/>
<path d="M182.677 146.547L124.623 175.574V179.209V182.844L182.781 153.765L240.939 124.686V121.051C240.939 119.026 240.887 117.416 240.835 117.468C240.731 117.468 214.56 130.554 182.677 146.547Z" fill="white"/>
<path d="M15.2155 151.324C9.97088 153.921 5.71289 156.206 5.71289 156.361C5.71289 156.517 31.5205 169.551 63.0919 185.336L120.471 214L177.85 185.336C209.421 169.551 235.229 156.517 235.229 156.361C235.229 156.206 230.919 153.921 225.623 151.273L216.016 146.495L168.763 170.122C142.799 183.104 121.042 193.749 120.471 193.749C119.9 193.749 98.1425 183.104 72.1791 170.122C46.2157 157.14 24.8738 146.495 24.8219 146.547C24.7181 146.547 20.4082 148.676 15.2155 151.324Z" fill="white"/>
</g>
<defs>
<clipPath id="clip0_20_140">
<rect width="240" height="240" fill="white"/>
</clipPath>
</defs>
</svg>
