<svg width="240" height="244" viewBox="0 0 240 244" fill="none" xmlns="http://www.w3.org/2000/svg">
<g opacity="0.1">
<path d="M144.117 23.4806L143 24.5975V39.6562V54.6763L143.924 55.7547L144.849 56.8331L191.103 56.9486L237.319 57.0256L238.59 55.9088L239.861 54.7919L239.976 40.696C240.053 31.4528 239.938 26.0995 239.668 25.0597C238.898 22.1712 242.441 22.3637 191.142 22.3637H145.234L144.117 23.4806ZM227.999 33.34C229.924 34.688 229.77 38.0771 227.729 39.117C226.766 39.6177 223.146 39.6947 201.54 39.6947H176.429L175.313 38.5778C174.542 37.8075 174.196 37.0758 174.196 36.2285C174.196 35.3812 174.542 34.6494 175.313 33.8792L176.429 32.7623H201.81C223.608 32.7623 227.305 32.8393 227.999 33.34Z" fill="white"/>
<path d="M115.311 58.0655C114.348 59.0284 114.117 59.9142 112.769 67.5013C111.96 72.1229 111.344 75.9742 111.459 76.0512C111.575 76.1667 113.269 75.8972 115.272 75.4735C121.011 74.2026 131.063 74.0485 137.109 75.0884C139.689 75.512 142.231 75.9742 142.732 76.0897L143.656 76.3208L142.424 69.581L141.191 62.8412L139.497 61.1851C138.534 60.2608 137.533 58.9513 137.263 58.2581L136.762 57.0257H126.556H116.35L115.311 58.0655Z" fill="white"/>
<path d="M150.588 65.5755C150.935 66.4998 154.055 74.2409 157.482 82.8294L163.721 98.4272H191.412H219.065L225.882 81.4814C229.617 72.1612 232.699 64.4201 232.737 64.2275C232.737 64.0734 214.097 63.9579 191.335 63.9579H149.934L150.588 65.5755Z" fill="white"/>
<path d="M70.0938 80.8268C60.8121 90.147 61.0432 89.6463 63.9702 93.8828C64.9715 95.3463 67.2438 98.6199 69.0154 101.2L72.2505 105.899L74.0222 103.126C78.4512 96.3862 84.9984 89.7619 91.8538 85.1403L95.2429 82.868L87.9639 77.8613C82.1484 73.8174 80.4539 72.8161 79.3755 72.8161C78.1816 72.8161 77.3728 73.5478 70.0938 80.8268Z" fill="white"/>
<path d="M121.241 81.5585C111.728 82.7909 103.216 85.949 95.3597 91.1483C90.6226 94.2679 83.4206 101.547 80.1085 106.554C69.9795 121.843 67.6687 140.33 73.6768 157.353C83.5747 185.198 113.076 200.872 141.653 193.478C151.512 190.898 160.332 185.929 167.456 178.804C170.615 175.685 174.196 171.294 174.196 170.601C174.196 170.447 173.426 169.715 172.463 169.022L170.769 167.751L170.73 155.504V143.295H169.498C167.572 143.295 164.491 141.678 162.912 139.829C161.14 137.749 160.332 135.361 160.332 132.049V129.43H159.099C155.864 129.43 151.743 126.118 150.549 122.575C149.702 120.11 149.663 107.902 150.511 105.514C151.473 102.856 153.091 101.085 156.403 99.159C156.48 99.1205 155.363 96.232 153.977 92.7273L151.435 86.3727L147.892 85.0247C143.578 83.4071 138.88 82.2132 134.528 81.674C131.447 81.3274 123.705 81.2504 121.241 81.5585ZM117.774 92.6888C119.469 94.4989 118.891 97.1178 116.619 98.0807C114.924 98.7739 113.153 98.1962 112.383 96.6557C111.574 95.1152 111.651 94.2294 112.806 92.8814C114.154 91.2638 116.388 91.1868 117.774 92.6888ZM106.76 98.8124C108.608 99.7367 109.147 102.317 107.838 103.935C107.607 104.204 106.259 105.129 104.795 105.976C94.2428 112.138 88.7354 122.267 87.6956 137.518C87.4645 140.984 87.3105 141.639 86.5402 142.409C85.2693 143.68 82.997 143.642 81.726 142.294C80.8402 141.37 80.8017 141.061 80.8787 137.403C81.3024 120.418 89.3131 106.245 102.369 99.4286C104.988 98.0807 105.296 98.0422 106.76 98.8124ZM134.258 124.347C145.928 130.124 145.697 146.723 133.834 152.384C130.676 153.925 125.824 154.156 122.473 152.924C119.353 151.768 117.158 150.228 115.271 147.878C109.571 140.676 111.343 130.162 119.161 125.194C122.049 123.307 123.821 122.883 128.019 122.999C131.293 123.076 131.986 123.23 134.258 124.347Z" fill="white"/>
<path d="M157.829 106.554C156.904 107.555 156.866 107.709 156.866 114.025C156.866 122.498 156.673 122.228 162.72 122.498L167.072 122.691L167.264 128.776C167.457 134.63 167.496 134.938 168.381 135.631C169.229 136.324 170.192 136.363 191.489 136.363H213.75L214.674 135.361C215.56 134.437 215.599 134.129 215.714 128.429L215.83 122.498H219.989C223.956 122.498 224.187 122.46 225.073 121.497C225.959 120.534 225.997 120.38 225.997 113.948V107.401L224.919 106.477L223.84 105.552H191.297H158.753L157.829 106.554Z" fill="white"/>
<path d="M56.3461 123.692C49.1441 125.001 47.9502 125.348 47.1029 126.195L46.1401 127.12L46.0245 137.056C45.9475 142.486 46.063 147.647 46.2171 148.456C46.7563 150.921 47.565 151.268 56.9623 152.962C61.5839 153.771 65.4352 154.464 65.5122 154.464C65.5892 154.464 65.5892 154.195 65.4737 153.925C64.896 152.423 64.0102 147.108 63.6636 142.949C63.1244 136.787 64.0487 126.349 65.4737 122.652C65.7433 121.959 66.0899 121.92 56.3461 123.692Z" fill="white"/>
<path d="M177.664 153.809V164.324L182.863 168.136L188.024 171.988L188.063 175.685C188.063 179.151 188.14 179.459 189.064 180.422C190.412 181.732 192.261 181.77 193.724 180.499C194.764 179.613 194.802 179.382 194.918 175.685L195.072 171.834L200.233 167.944L205.394 164.054L205.317 153.771L205.201 143.488L191.452 143.372L177.664 143.295V153.809Z" fill="white"/>
<path d="M69.5559 174.376C62.508 184.389 62.1229 184.967 62.1229 186.392C62.1229 187.663 62.7006 188.356 69.9411 195.558C77.3356 202.952 77.8363 203.376 79.1842 203.376C80.4166 203.376 81.7261 202.644 87.7342 198.446C91.6625 195.75 94.8591 193.478 94.8591 193.363C94.8206 193.247 93.2416 192.13 91.2774 190.859C86.4247 187.701 78.1444 179.421 74.7552 174.376L72.2133 170.601L69.5559 174.376Z" fill="white"/>
<path d="M177.777 177.456C174.234 182.117 166.993 188.856 162.795 191.475L161.447 192.284L166.185 195.558C176.622 202.798 178.124 203.761 179.125 203.761C179.895 203.761 181.782 202.105 188.137 195.789C192.528 191.398 196.148 187.662 196.148 187.508C196.148 187.354 195.532 187.508 194.8 187.817C191.95 189.01 187.521 188.202 184.863 186.006C182.476 184.042 181.436 181.847 181.166 178.227C180.858 174.144 180.396 174.067 177.777 177.456Z" fill="white"/>
<path d="M111.42 200.719C111.42 201.027 112.113 204.994 112.96 209.538C114.308 217.01 114.578 217.895 115.464 218.666C116.465 219.552 116.619 219.552 127.441 219.552H138.456L139.496 218.473C140.382 217.626 140.69 216.74 141.268 213.582C141.653 211.464 142.346 207.651 142.808 205.109C143.27 202.567 143.617 200.449 143.578 200.372C143.501 200.295 141.499 200.642 139.111 201.142C135.452 201.874 133.488 202.028 127.403 202.028C120.548 201.989 117.505 201.681 112.306 200.41C111.69 200.295 111.42 200.372 111.42 200.719Z" fill="white"/>
</g>
</svg>
