<svg xmlns="http://www.w3.org/2000/svg" width="417" height="380" viewBox="0 0 417 380">
<path d="M45 90.3129C72.8585 90.3129 95.5 69.1769 95.5 43.0353C95.5 35.3283 95.3474 27.8642 93.4359 20.9503C92.4685 17.451 93.1272 12.9018 94.9711 9.21359C96.8203 5.51481 99.7711 2.84283 103.277 2.81423L387 0.5C387.001 0.5 387.001 0.5 387.002 0.5C403.325 0.501032 416.5 12.8734 416.5 28.0665V351.933C416.5 367.127 403.324 379.5 387 379.5H30C13.6757 379.5 0.5 367.127 0.5 351.933V90.3226C0.5 86.7141 3.17552 83.8174 6.7837 82.2904C10.3895 80.7645 14.764 80.6848 17.9366 82.5637C26.2636 87.495 35.6408 90.3129 45 90.3129Z" fill="url(#paint0_linear_32_592)" stroke="#E7E5E5"/>
<defs>
<linearGradient id="paint0_linear_32_592" x1="106.294" y1="58.6765" x2="267.464" y2="344.979" gradientUnits="userSpaceOnUse">
<stop stop-color="white"/>
<stop offset="1" stop-color="#F4F4F4"/>
</linearGradient>
</defs>
</svg>