<svg width="240" height="240" viewBox="0 0 240 240" fill="none" xmlns="http://www.w3.org/2000/svg">
<g opacity="0.1">
<path d="M125.318 20.4555C122.594 21.228 120.887 22.4477 120.521 23.8301C120.195 25.1717 121.537 36.2712 122.228 38.0194C123.041 39.971 124.627 40.5808 129.018 40.5808C133.287 40.5808 134.954 39.9303 135.767 37.8974C136.296 36.4744 137.475 27.8551 137.475 25.2531C137.475 23.7894 137.231 23.2202 136.336 22.2851C134.263 20.2522 129.14 19.3984 125.318 20.4555Z" fill="white"/>
<path d="M111.577 30.3758C108.609 32.7339 105.926 35.9458 104.178 39.361C102.714 42.207 101.291 46.1101 101.291 47.3705C101.291 47.8177 106.333 47.899 128.938 47.899C153.82 47.899 156.585 47.8177 156.585 47.2485C156.585 45.9068 154.43 40.2555 153.007 37.938C152.194 36.5964 150.771 34.6855 149.876 33.7097C148.209 31.8395 144.55 28.7902 144.022 28.7902C143.859 28.7902 143.493 30.7417 143.209 33.1405C142.558 38.9138 141.786 41.15 139.793 43.3454C136.825 46.5167 135.728 46.8826 128.938 46.8826C122.107 46.8826 120.928 46.476 118.001 43.1828C116.05 40.9467 115.399 38.9545 114.667 32.9372C114.383 30.6604 114.017 28.7902 113.854 28.7902C113.691 28.7902 112.675 29.4813 111.577 30.3758Z" fill="white"/>
<path d="M224.36 31.9207C224.279 32.124 223.425 35.7019 222.449 39.8895L220.701 47.5331L222.612 51.5581L224.482 55.6239V77.782V99.9402H229.768H235.053V77.5787V55.2173L236.842 51.3549L238.631 47.5331L236.842 39.7676C235.866 35.4986 235.053 31.9207 235.053 31.7988C235.053 31.5142 224.523 31.6361 224.36 31.9207Z" fill="white"/>
<path d="M178.295 35.6612C176.019 37.2875 174.555 39.1577 173.091 42.207C171.953 44.5651 171.831 45.2563 171.831 48.7122C171.831 52.2087 171.953 52.8185 173.132 55.2986C174.636 58.5512 177.035 61.2346 179.556 62.5762L181.385 63.552V93.4757V123.359L180.084 124.009C175.612 126.164 172.075 131.734 171.709 137.142C171.384 142.508 173.783 147.753 178.052 151.046C179.027 151.778 180.003 152.388 180.206 152.388C180.41 152.388 180.572 148.973 180.572 144.338V136.288L184.15 134.214L187.687 132.141L189.923 133.401C191.143 134.092 192.851 135.068 193.705 135.597L195.209 136.532V144.46C195.209 149.176 195.371 152.388 195.575 152.388C195.819 152.388 197.079 151.372 198.421 150.111C200.088 148.566 201.307 146.981 202.202 145.151C203.462 142.63 203.544 142.183 203.544 138.158C203.544 134.377 203.422 133.645 202.446 131.531C201.145 128.725 197.852 125.188 195.615 124.091L193.989 123.318V93.557V63.796L195.778 62.7389C198.258 61.2752 201.145 58.0633 202.446 55.2986C203.422 53.2658 203.544 52.4933 203.544 48.7122C203.544 44.931 203.422 44.1586 202.446 42.1257C201.267 39.6049 198.136 35.9865 196.347 35.0513L195.209 34.4415V42.4103V50.3384L193.705 51.2736C192.851 51.8021 191.143 52.8185 189.923 53.5097L187.687 54.7701L184.15 52.6559L180.572 50.5824V42.5323C180.572 38.1006 180.41 34.4821 180.247 34.4821C180.044 34.4821 179.149 35.0107 178.295 35.6612Z" fill="white"/>
<path d="M99.0556 54.8514C96.3723 55.6239 95.5185 59.0797 97.47 61.0719L98.5677 62.129H129.02H159.472L160.448 61.1126C161.18 60.4214 161.464 59.6896 161.464 58.5919C161.464 56.559 160.57 55.3393 158.7 54.8107C156.829 54.3229 100.804 54.3229 99.0556 54.8514Z" fill="white"/>
<path d="M104.137 68.8782C104.137 69.0002 104.828 70.4232 105.641 72.0495C107.999 76.5217 112.349 80.6688 117.188 82.9862C121.985 85.3037 124.831 85.8729 130.442 85.6289C135.687 85.385 138.777 84.4499 143.005 81.8072C147.477 79.0425 152.397 73.3098 153.535 69.5287L153.779 68.6343H128.978C115.317 68.6343 104.137 68.7562 104.137 68.8782Z" fill="white"/>
<path d="M119.506 90.7923C105.235 93.4757 92.6722 101.851 84.8253 113.967C82.8331 117.016 80.9629 120.35 80.9629 120.879C80.9629 121.001 85.6385 121.082 91.3305 121.082C100.356 121.082 101.698 121.163 101.698 121.692C101.698 122.058 101.251 124.822 100.682 127.831C100.112 130.84 99.6652 134.133 99.6652 135.149V136.938H132.313H165.001L165.489 134.133C166.384 129.132 169.677 123.481 173.214 120.879C175.572 119.13 175.531 117.463 173.051 113.764C165.652 102.664 154.878 95.0207 141.542 91.5242C138.249 90.6297 136.623 90.4671 130.158 90.3451C124.791 90.2638 121.742 90.3858 119.506 90.7923Z" fill="white"/>
<path d="M220.905 106.73C220.62 106.852 220.132 107.462 219.807 108.072C219.279 109.088 219.197 112.625 219.197 131.246V153.201H229.565H239.932V130.677V108.112L238.875 107.299C237.859 106.486 237.29 106.445 229.606 106.486C225.133 106.486 221.19 106.608 220.905 106.73Z" fill="white"/>
<path d="M68.7656 137.955C68.7656 143.647 68.9283 148.322 69.0909 148.322C69.2535 148.322 70.1886 147.509 71.1644 146.533L72.9127 144.744L76.1246 146.167L79.3365 147.631L81.532 146.899L83.6868 146.167L85.0692 142.671L86.4515 139.174L89.7447 139.052L93.038 138.93L93.2819 134.377C93.4445 131.856 93.6885 129.335 93.8104 128.685L94.0544 127.587H81.41H68.7656V137.955Z" fill="white"/>
<path d="M208.954 130.108C210.173 133.198 210.621 139.459 209.848 143.159C208.547 149.461 203.912 155.234 197.244 158.812C193.463 160.845 193.341 160.967 191.837 163.772C184.6 177.107 170.329 187.272 155.002 190.036C151.098 190.728 141.463 190.85 137.926 190.28C135.974 189.955 135.323 190.036 133.047 190.89C129.957 192.029 129.672 192.273 128.818 194.549C128.127 196.257 128.127 196.298 129.55 199.388C130.323 201.095 130.973 202.803 131.014 203.169C131.014 203.535 131.99 206.299 133.169 209.308L135.283 214.797H145.772H156.303L158.62 208.698C159.88 205.364 161.181 202.518 161.507 202.315C161.832 202.152 163.987 201.42 166.345 200.689C168.703 199.957 172.85 198.249 175.574 196.867L180.534 194.346L186.308 196.948C189.519 198.371 192.325 199.55 192.528 199.55C192.772 199.55 196.269 196.298 200.253 192.273L207.49 185.036L204.766 178.896L202.042 172.757L204.319 168.325C206.717 163.609 208.588 158.812 209.401 155.397C209.848 153.608 210.051 153.282 211.312 152.835L212.694 152.347V139.947V127.587H210.295H207.897L208.954 130.108Z" fill="white"/>
<path d="M90.1512 147.59C89.6227 148.769 89.0941 150.152 88.9315 150.64C88.7689 151.209 88.1996 151.615 87.3458 151.778C86.614 151.941 84.6218 152.713 82.9142 153.486L79.7836 154.909L77.5068 153.852C76.2058 153.282 74.8641 152.795 74.4982 152.795C73.7257 152.795 67.9524 158.446 67.9524 159.178C67.9524 159.422 68.4403 160.763 69.0095 162.146L70.1072 164.585L68.8468 167.35C68.1557 168.854 67.3832 170.846 67.0986 171.781C66.6513 173.367 66.4481 173.53 63.9273 174.465L61.2439 175.481L61.122 180.279L61 185.117L63.724 186.133C66.4074 187.15 66.4074 187.15 67.3019 189.589C67.7897 190.931 68.6435 192.882 69.1721 193.98L70.1479 195.891L69.2127 198.046C67.6271 201.624 67.5865 201.461 71.1236 204.958L74.3356 208.17L77.1002 206.95L79.8649 205.73L82.7516 207.113C84.2966 207.885 86.2074 208.617 86.9393 208.739C88.5656 209.023 88.7282 209.267 89.9073 212.479L90.8017 215H95.5586H100.315L101.251 212.357C101.779 210.894 102.389 209.593 102.674 209.43C102.918 209.267 104.259 208.739 105.682 208.251C107.065 207.763 108.853 206.991 109.626 206.503L111.09 205.649L113.936 206.95L116.822 208.21L120.116 204.917L123.409 201.624L122.148 198.737L120.847 195.85L121.701 194.427C122.148 193.655 123.043 191.703 123.612 190.077L124.71 187.15L127.434 186.133L130.158 185.117V180.36V175.644L127.353 174.546C124.588 173.448 124.507 173.367 123.856 171.375C123.49 170.236 122.677 168.285 122.026 167.025L120.888 164.748L122.108 161.983L123.327 159.178L119.994 155.844L116.66 152.469L113.976 153.689L111.293 154.909L109.057 153.852C107.796 153.242 105.804 152.469 104.584 152.063C102.47 151.331 102.43 151.29 101.332 148.526L100.275 145.68L95.6806 145.558L91.0863 145.436L90.1512 147.59ZM100.072 164.666C109.911 167.634 114.586 178.409 110.073 187.556C104.097 199.632 86.858 199.591 80.8814 187.475C79.7836 185.239 79.5397 184.223 79.4177 181.173C79.2144 177.108 80.0682 173.977 82.223 170.806C85.9635 165.358 93.6071 162.756 100.072 164.666Z" fill="white"/>
</g>
</svg>
