<svg width="50" height="50" viewBox="0 0 50 50" fill="none" xmlns="http://www.w3.org/2000/svg">
<path d="M7.89062 14.4727C7.1582 13.7305 6.94336 13.4473 6.89453 13.1641C6.74805 12.373 6.8457 12.2461 9.58984 9.51172M7.89062 14.4727L9.58984 9.51172M7.89062 14.4727L8.81836 15.4297L7.89062 14.4727ZM9.58984 9.51172L9.6369 9.55894C9.63686 9.55899 9.63682 9.55902 9.63678 9.55907L9.58984 9.51172ZM9.63687 40.441C10.7457 41.5401 11.3986 42.1808 11.8133 42.5529C12.2315 42.9282 12.3959 43.0187 12.5298 43.0396L12.531 43.0398C12.8581 43.0967 13.1014 43.0817 13.378 42.9411C13.6603 42.7976 13.9807 42.5217 14.4546 42.0429L14.4548 42.0427C14.6945 41.8031 14.9222 41.5827 15.0964 41.4219C15.1834 41.3417 15.2577 41.2757 15.3137 41.2295C15.3416 41.2065 15.366 41.1876 15.3858 41.1741C15.3956 41.1674 15.4055 41.1611 15.415 41.1562C15.4214 41.1529 15.4385 41.1443 15.459 41.1443C15.4728 41.1443 15.4864 41.1485 15.4918 41.1502L15.4922 41.1503C15.5006 41.1529 15.5105 41.1565 15.5213 41.1606C15.5431 41.169 15.5721 41.1809 15.6069 41.196C15.6766 41.2261 15.7724 41.2694 15.8874 41.3226C16.1174 41.429 16.4254 41.5757 16.7576 41.7369L16.758 41.7371C17.4093 42.0579 18.471 42.4865 19.1129 42.7004L20.2848 43.0911L20.3286 43.1057L20.3303 43.1519L20.3791 44.5191L20.3791 44.5193C20.4037 45.26 20.4308 45.6612 20.5245 45.9342C20.6152 46.1983 20.7692 46.3444 21.0745 46.5673L21.0748 46.5675C21.1373 46.6138 21.1864 46.6459 21.2794 46.6712C21.3762 46.6976 21.5216 46.7169 21.776 46.7303C22.284 46.757 23.2069 46.7595 25 46.7595C26.7931 46.7595 27.716 46.757 28.224 46.7303C28.4784 46.7169 28.6238 46.6976 28.7206 46.6712C28.8135 46.6459 28.8626 46.6138 28.925 46.5677L9.63687 40.441ZM9.63687 40.441C9.63688 40.441 9.63689 40.441 9.6369 40.4411L9.58984 40.4883L9.63678 40.4409C9.63681 40.441 9.63684 40.441 9.63687 40.441ZM40.4411 40.3631C39.0717 41.7374 38.361 42.4429 37.8937 42.7882C37.6616 42.9598 37.4954 43.0377 37.3434 43.0665C37.1908 43.0954 37.0454 43.0765 36.8481 43.0399L36.8473 43.0398C36.7201 43.0178 36.5884 42.9585 36.3941 42.8107C36.1989 42.6622 35.9453 42.4281 35.5742 42.0619L35.574 42.0618L34.617 41.1243L34.5835 41.0915L34.5414 41.1118L33.2035 41.7563L33.2032 41.7565C32.1037 42.2917 31.2283 42.6225 29.7953 43.0514L29.791 43.0527L29.791 43.0528C29.7575 43.0654 29.7385 43.0941 29.7277 43.115C29.7157 43.1382 29.7062 43.167 29.6981 43.1992C29.6818 43.264 29.6683 43.3549 29.6566 43.4711C29.6331 43.7043 29.616 44.0506 29.6013 44.5194L29.6013 44.5202C29.5866 45.2659 29.5642 45.6644 29.473 45.9345C29.3847 46.1958 29.2311 46.3392 28.9252 46.5675L40.4411 40.3631ZM40.4411 40.3631C41.5401 39.2543 42.1808 38.6014 42.5529 38.1867C42.9282 37.7685 43.0187 37.6041 43.0396 37.4702L43.0398 37.469C43.0967 37.1419 43.0817 36.8986 42.9411 36.622C42.7976 36.3397 42.5217 36.0193 42.0429 35.5454L42.0427 35.5452C41.8031 35.3055 41.5827 35.0778 41.4219 34.9036C41.3417 34.8166 41.2757 34.7423 41.2295 34.6863C41.2066 34.6584 41.1876 34.634 41.1741 34.6142C41.1674 34.6044 41.1611 34.5945 41.1562 34.585C41.1529 34.5786 41.1443 34.5615 41.1443 34.541C41.1443 34.5273 41.1485 34.5137 41.1501 34.5083L41.1503 34.5079C41.1529 34.4995 41.1564 34.4895 41.1605 34.4785C41.1688 34.4565 41.1808 34.4272 41.1958 34.3919C41.2259 34.3212 41.2692 34.2242 41.3224 34.108C41.4289 33.8755 41.5756 33.565 41.7369 33.2326L41.7374 33.2316C42.0677 32.5808 42.4961 31.5197 42.7101 30.8777L40.4411 40.3631ZM5.47852 20.3125L6.8457 20.2637L5.47852 20.3125ZM5.47852 20.3125C4.00391 20.3613 3.82812 20.4199 3.37891 21.0352L5.47852 20.3125ZM46.6211 21.0352C46.8164 21.2988 46.8262 21.416 46.8262 25C46.8262 28.584 46.8164 28.7012 46.6211 28.9648V21.0352ZM46.6211 21.0352C46.1719 20.4199 45.9961 20.3613 44.5215 20.3125L46.6211 21.0352ZM8.26341 16.7375C8.26338 16.7375 8.26336 16.7376 8.26333 16.7376L8.26321 16.7379L8.20312 16.709L8.26341 16.7375ZM7.2168 19.1211L7.2802 19.1417L7.28019 19.1417C7.28017 19.1418 7.28016 19.1418 7.28014 19.1419L7.2168 19.1211ZM7.28981 30.8774C7.28982 30.8774 7.28983 30.8774 7.28985 30.8775L7.28991 30.8777L7.22657 30.8984L7.28981 30.8774ZM42.7102 30.8774L43.0909 29.7156L43.1054 29.6714L43.1519 29.6697L44.5191 29.6209L44.5193 29.6209C45.26 29.5963 45.6612 29.5692 45.9342 29.4755C46.1983 29.3848 46.3444 29.2308 46.5672 28.9255L46.5675 28.9252C46.6138 28.8627 46.6459 28.8136 46.6712 28.7206C46.6976 28.6238 46.7169 28.4784 46.7303 28.224C46.757 27.716 46.7595 26.7931 46.7595 25C46.7595 23.2069 46.757 22.284 46.7303 21.776C46.7169 21.5216 46.6976 21.3762 46.6712 21.2794C46.6459 21.1864 46.6138 21.1373 46.5675 21.0748L46.5673 21.0745C46.3444 20.7692 46.1983 20.6152 45.9342 20.5245C45.6612 20.4308 45.26 20.4037 44.5193 20.3791L44.5191 20.3791L43.1519 20.3303L43.1054 20.3286L43.0909 20.2844L42.7102 19.1226C42.7102 19.1225 42.7101 19.1224 42.7101 19.1223C42.4961 18.4803 42.0677 17.4192 41.7374 16.7685L41.7369 16.7674C41.5756 16.435 41.4289 16.1245 41.3224 15.892C41.2692 15.7758 41.2259 15.6788 41.1958 15.6081C41.1883 15.5905 41.1816 15.5744 41.1757 15.5599C41.1698 15.5454 41.1647 15.5325 41.1605 15.5215C41.1594 15.5186 41.1584 15.5157 41.1574 15.513C41.1546 15.5053 41.1522 15.4983 41.1503 15.4921L41.1501 15.4917C41.1485 15.4863 41.1443 15.4727 41.1443 15.459C41.1443 15.4385 41.1529 15.4214 41.1562 15.415C41.1611 15.4055 41.1674 15.3956 41.1741 15.3858C41.1876 15.366 41.2066 15.3416 41.2295 15.3137C41.2757 15.2577 41.3417 15.1834 41.4219 15.0964C41.5827 14.9222 41.8031 14.6945 42.0427 14.4548L42.0429 14.4546C42.5217 13.9807 42.7976 13.6603 42.9411 13.378C43.0817 13.1014 43.0967 12.8581 43.0398 12.531L43.0396 12.5298C43.0187 12.3959 42.9282 12.2315 42.5529 11.8133C42.1808 11.3986 41.5401 10.7457 40.4411 9.6369C39.0717 8.26262 38.361 7.55712 37.8937 7.21182C37.6616 7.04024 37.4954 6.9623 37.3434 6.93348C37.1908 6.90457 37.0454 6.92353 36.8481 6.96009L36.8473 6.96023C36.7201 6.98215 36.5884 7.04151 36.3941 7.18929C36.1989 7.33779 35.9453 7.57185 35.5742 7.93808L35.574 7.93825L34.617 8.87575L34.5835 8.9085L34.5414 8.88818L33.2035 8.24366L33.2032 8.24354C32.1037 7.70834 31.2283 7.37753 29.7953 6.94863L29.7953 6.94878L29.791 6.94719C29.7575 6.93462 29.7385 6.90591 29.7277 6.88498C29.7157 6.86181 29.7062 6.83299 29.6981 6.8008C29.6818 6.736 29.6683 6.64512 29.6566 6.52888C29.6331 6.29567 29.616 5.9494 29.6013 5.4806L29.6013 5.47983C29.5866 4.73408 29.5642 4.33564 29.473 4.06552C29.3847 3.80414 29.2311 3.66069 28.925 3.43235L28.9242 3.43175C28.8649 3.38614 28.8158 3.35405 28.7235 3.3284C28.6274 3.30171 28.4835 3.28184 28.2346 3.26723C27.7376 3.23807 26.8415 3.23074 25.1168 3.22096C23.9941 3.21608 23.0767 3.22097 22.4208 3.23438C22.0927 3.24109 21.8306 3.24992 21.641 3.26068C21.5462 3.26607 21.4702 3.2719 21.4135 3.27811C21.3555 3.28447 21.3244 3.29062 21.3132 3.29457C21.1808 3.34962 21.024 3.45436 20.8803 3.58144C20.7362 3.70893 20.6101 3.85452 20.5369 3.98728L20.537 3.98735L20.5348 3.99087C20.5318 3.99549 20.5254 4.00984 20.5172 4.03925C20.5095 4.06698 20.5015 4.10325 20.4935 4.14763C20.4774 4.23628 20.4617 4.35348 20.4472 4.49184C20.4181 4.7683 20.3937 5.1256 20.3791 5.50046C20.3791 5.50052 20.3791 5.50058 20.3791 5.50064L20.3125 5.49805L42.7102 30.8774ZM7.91917 35.5833C7.91902 35.5834 7.91887 35.5836 7.91872 35.5838C7.91856 35.5839 7.9184 35.5841 7.91823 35.5842L7.87109 35.5371L7.91917 35.5833ZM29.8538 16.0242L29.8539 16.0243C31.8932 17.0391 32.9936 17.5977 33.598 17.9846C33.9004 18.1783 34.0846 18.3325 34.2003 18.4838C34.3179 18.6376 34.3615 18.7841 34.3918 18.9531L34.3919 18.9539C34.3964 18.981 34.4 19.0414 34.4033 19.1254C34.4066 19.2115 34.4097 19.3276 34.4125 19.4698C34.4182 19.7543 34.4227 20.1447 34.4258 20.6124C34.4319 21.5478 34.4319 22.7932 34.4221 24.1216L34.3928 28.9555L34.3927 28.971L34.3858 28.9849L34.1419 29.4727C34.1419 29.4727 34.1419 29.4728 34.1418 29.4728C34.0286 29.7042 33.9213 29.8956 33.7568 30.0861C33.5926 30.2763 33.3738 30.4629 33.0403 30.6887C32.375 31.1392 31.2407 31.754 29.1427 32.8713L29.1425 32.8714C28.0535 33.4477 27.0473 33.9727 26.3023 34.3538C25.9299 34.5443 25.6224 34.6989 25.4024 34.806C25.2925 34.8595 25.2039 34.9014 25.1397 34.93C25.1077 34.9443 25.0811 34.9556 25.0605 34.9635C25.0503 34.9674 25.0408 34.9707 25.0324 34.9733C25.0262 34.9751 25.0134 34.9788 25 34.9788C24.9866 34.9788 24.9738 34.9751 24.9676 34.9733C24.9654 34.9726 24.9632 34.9719 24.9608 34.9711C24.9542 34.9689 24.947 34.9663 24.9395 34.9635C24.9189 34.9556 24.8923 34.9443 24.8603 34.93C24.7961 34.9014 24.7075 34.8595 24.5976 34.806C24.3776 34.6989 24.0701 34.5443 23.6977 34.3538C22.9527 33.9727 21.9465 33.4477 20.8575 32.8714L20.8573 32.8713C18.7593 31.754 17.625 31.1392 16.9597 30.6887C16.6262 30.4629 16.4074 30.2763 16.2432 30.0861C16.0787 29.8957 15.9714 29.7043 15.8582 29.4729C15.8582 29.4728 15.8581 29.4728 15.8581 29.4727L15.6142 28.9849L15.6073 28.971L15.6072 28.9555L15.5779 23.975L15.5486 18.9945L15.5485 18.9783L15.5559 18.9638L15.7802 18.5249C15.7803 18.5248 15.7803 18.5247 15.7804 18.5246C15.8857 18.3139 15.97 18.1841 16.182 18.0329C16.3874 17.8864 16.7153 17.7177 17.304 17.4209L17.304 17.4209C18.8474 16.6443 20.5372 15.8165 21.8693 15.1767C22.5354 14.8568 23.1122 14.5838 23.5366 14.3877C23.7488 14.2897 23.9232 14.2107 24.0518 14.1547C24.1161 14.1267 24.1693 14.1042 24.2102 14.0879C24.2492 14.0723 24.2819 14.0604 24.3022 14.056L24.3022 14.0558L24.307 14.0551C24.4502 14.0346 24.8753 14.0252 25.2476 14.0448L25.2481 14.0448C25.4151 14.0546 25.5524 14.0658 25.7229 14.1076C25.8927 14.1492 26.0931 14.2204 26.3887 14.348C26.9791 14.6028 27.9603 15.0872 29.8538 16.0242Z" fill="white" stroke="url(#paint0_linear_20_204)" stroke-width="0.133333"/>
<path d="M21.3287 17.3447L21.3284 17.3449C20.4107 17.7989 19.5785 18.2187 18.9758 18.5285C18.6744 18.6835 18.4307 18.8108 18.2624 18.9012C18.1922 18.9389 18.1355 18.97 18.0934 18.9939C18.1385 19.0192 18.2004 19.0529 18.2775 19.094C18.4556 19.189 18.7134 19.3231 19.0319 19.4866C19.6688 19.8136 20.5475 20.2578 21.5142 20.7412L25 22.4841L28.4858 20.7412C29.4525 20.2578 30.3312 19.8136 30.9681 19.4866C31.2866 19.3231 31.5444 19.189 31.7225 19.094C31.7996 19.0529 31.8615 19.0192 31.9066 18.9939C31.8645 18.97 31.8078 18.9389 31.7376 18.9012C31.5693 18.8108 31.3256 18.6835 31.0242 18.5285C30.4215 18.2187 29.5893 17.7989 28.6716 17.3449L28.6713 17.3447C27.3773 16.6953 26.5264 16.2809 25.9628 16.0289C25.6809 15.9028 25.4721 15.818 25.3164 15.7648C25.1593 15.7112 25.0618 15.6917 25 15.6917C24.9382 15.6917 24.8407 15.7112 24.6836 15.7648C24.5279 15.818 24.3191 15.9028 24.0372 16.0289C23.4736 16.2809 22.6227 16.6953 21.3287 17.3447Z" fill="white" stroke="url(#paint1_linear_20_204)" stroke-width="0.133333"/>
<path d="M23.7431 32.4807L23.7434 32.4808L24.1521 32.7088V28.3789V23.967L20.6733 22.2276L17.2542 20.518V24.4141C17.2542 26.5648 17.2567 27.6636 17.3197 28.2793C17.3512 28.5867 17.3972 28.7663 17.4613 28.894C17.5246 29.0201 17.608 29.1007 17.729 29.2073C17.7409 29.2172 17.7709 29.2377 17.8214 29.2693C17.8711 29.3004 17.9373 29.34 18.0181 29.3873C18.1798 29.4819 18.3987 29.6062 18.6592 29.7513C19.1799 30.0416 19.8655 30.4149 20.5878 30.8004C22.043 31.5622 23.4594 32.3241 23.7431 32.4807Z" fill="white" stroke="url(#paint2_linear_20_204)" stroke-width="0.133333"/>
<path d="M29.3072 22.2373L29.3072 22.2374L25.8479 23.967V28.3789V32.7187L26.364 32.432C26.364 32.432 26.364 32.432 26.364 32.432C26.5899 32.3058 27.3288 31.9096 28.2288 31.4269C28.6548 31.1985 29.1169 30.9507 29.5778 30.703L29.5782 30.7028C30.9274 29.9891 31.6843 29.5715 32.118 29.2587C32.3341 29.1028 32.4656 28.9758 32.5498 28.8546C32.6328 28.735 32.6723 28.6174 32.698 28.475C32.7008 28.4576 32.7041 28.4136 32.7071 28.3408C32.7102 28.2692 32.7129 28.1738 32.7153 28.0571C32.7202 27.8238 32.7239 27.5068 32.7263 27.1285C32.7312 26.372 32.7312 25.3712 32.7263 24.3069L32.6978 20.5373L29.3072 22.2373Z" fill="white" stroke="url(#paint3_linear_20_204)" stroke-width="0.133333"/>
<defs>
<linearGradient id="paint0_linear_20_204" x1="3.17383" y1="54.5431" x2="68.5279" y2="-18.2052" gradientUnits="userSpaceOnUse">
<stop stop-color="#F3F3F3"/>
<stop offset="1" stop-color="#9D9FA8"/>
</linearGradient>
<linearGradient id="paint1_linear_20_204" x1="17.9687" y1="23.7837" x2="25.6943" y2="6.33362" gradientUnits="userSpaceOnUse">
<stop stop-color="#F3F3F3"/>
<stop offset="1" stop-color="#9D9FA8"/>
</linearGradient>
<linearGradient id="paint2_linear_20_204" x1="17.1875" y1="35.0154" x2="34.0474" y2="24.3788" gradientUnits="userSpaceOnUse">
<stop stop-color="#F3F3F3"/>
<stop offset="1" stop-color="#9D9FA8"/>
</linearGradient>
<linearGradient id="paint3_linear_20_204" x1="25.7812" y1="35.0235" x2="42.6172" y2="24.4175" gradientUnits="userSpaceOnUse">
<stop stop-color="#F3F3F3"/>
<stop offset="1" stop-color="#9D9FA8"/>
</linearGradient>
</defs>
</svg>
