<svg width="50" height="50" viewBox="0 0 50 50" fill="none" xmlns="http://www.w3.org/2000/svg">
<path opacity="0.975" fill-rule="evenodd" clip-rule="evenodd" d="M5.15625 5C5.36458 5 5.57292 5 5.78125 5C8.03441 5.59592 10.3 6.18186 12.5781 6.75781C14.3621 7.29121 15.8595 8.26777 17.0703 9.6875C17.1224 9.76562 17.1224 9.84375 17.0703 9.92188C14.6875 12.3047 12.3047 14.6875 9.92188 17.0703C9.84375 17.1224 9.76562 17.1224 9.6875 17.0703C8.26777 15.8595 7.29121 14.3621 6.75781 12.5781C6.20623 10.2933 5.62029 8.02771 5 5.78125C5 5.57292 5 5.36458 5 5.15625C5.07812 5.13021 5.13021 5.07812 5.15625 5Z" fill="white"/>
<path opacity="0.979" fill-rule="evenodd" clip-rule="evenodd" d="M36.1719 5C36.6146 5 37.0573 5 37.5 5C37.8531 5.12447 38.1916 5.29375 38.5156 5.50781C40.5078 7.5 42.5 9.49219 44.4922 11.4844C44.7062 11.8083 44.8755 12.1469 45 12.5C45 12.9427 45 13.3854 45 13.8281C44.8689 14.2202 44.6736 14.5848 44.4141 14.9219C43.814 15.535 43.202 16.134 42.5781 16.7188C41.186 15.3657 39.8058 13.9985 38.4375 12.6172C37.9457 12.2534 37.4509 12.2534 36.9531 12.6172C36.4815 13.1173 36.4424 13.6511 36.8359 14.2188C38.1901 15.5729 39.5443 16.9271 40.8984 18.2812C40.9505 18.3334 40.9505 18.3854 40.8984 18.4375C40.3222 19.0399 39.7233 19.6128 39.1016 20.1562C38.2584 19.3913 37.4381 18.5971 36.6406 17.7734C35.8466 17.3612 35.2607 17.5565 34.8828 18.3594C34.8074 18.6939 34.8595 19.0064 35.0391 19.2969C35.8735 20.1183 36.6938 20.9516 37.5 21.7969C36.901 22.4479 36.276 23.0729 35.625 23.6719C34.2068 22.2927 32.8005 20.8995 31.4062 19.4922C30.4534 19.0849 29.8545 19.3844 29.6094 20.3906C29.6648 20.6385 29.756 20.8729 29.8828 21.0938C31.237 22.4479 32.5912 23.8021 33.9453 25.1562C33.9974 25.2344 33.9974 25.3125 33.9453 25.3906C33.3713 25.9777 32.7853 26.5506 32.1875 27.1094C31.3683 26.3292 30.561 25.535 29.7656 24.7266C28.7952 24.2481 28.1702 24.5345 27.8906 25.5859C27.9353 25.8503 28.0265 26.0977 28.1641 26.3281C28.9725 27.1235 29.7667 27.9308 30.5469 28.75C29.974 29.375 29.375 29.974 28.75 30.5469C27.3579 29.1938 25.9777 27.8266 24.6094 26.4453C24.1176 26.0815 23.6228 26.0815 23.125 26.4453C22.6588 26.9479 22.6198 27.4818 23.0078 28.0469C24.362 29.401 25.7162 30.7552 27.0703 32.1094C27.1224 32.1615 27.1224 32.2135 27.0703 32.2656C26.4941 32.868 25.8952 33.4409 25.2734 33.9844C24.4303 33.2195 23.61 32.4252 22.8125 31.6016C22.0185 31.1893 21.4326 31.3846 21.0547 32.1875C20.9793 32.522 21.0314 32.8345 21.2109 33.125C22.0454 33.9464 22.8657 34.7798 23.6719 35.625C23.0729 36.276 22.4479 36.901 21.7969 37.5C20.3787 36.1209 18.9724 34.7277 17.5781 33.3203C16.6253 32.913 16.0263 33.2125 15.7812 34.2188C15.8193 34.4762 15.9105 34.7106 16.0547 34.9219C17.4512 36.2923 18.8184 37.6855 20.1562 39.1016C19.5986 39.7504 18.9996 40.3623 18.3594 40.9375C17.5402 40.1573 16.7329 39.3631 15.9375 38.5547C14.9671 38.0762 14.3421 38.3627 14.0625 39.4141C14.1072 39.6784 14.1984 39.9259 14.3359 40.1562C15.1444 40.9516 15.9386 41.7589 16.7188 42.5781C16.134 43.202 15.535 43.814 14.9219 44.4141C14.5848 44.6736 14.2202 44.8689 13.8281 45C13.3854 45 12.9427 45 12.5 45C12.1469 44.8755 11.8083 44.7062 11.4844 44.4922C9.49219 42.5 7.5 40.5078 5.50781 38.5156C5.29375 38.1916 5.12447 37.8531 5 37.5C5 37.0573 5 36.6146 5 36.1719C5.13111 35.7798 5.32642 35.4152 5.58594 35.0781C15.4166 25.2474 25.2474 15.4166 35.0781 5.58594C35.4152 5.32642 35.7798 5.13111 36.1719 5Z" fill="white"/>
<path opacity="0.972" fill-rule="evenodd" clip-rule="evenodd" d="M18.6719 11.4062C19.9657 12.4915 21.1897 13.6634 22.3438 14.9219C19.9219 17.3959 17.474 19.8438 15 22.2656C13.7902 21.0948 12.5922 19.9099 11.4062 18.7109C13.8439 16.2863 16.2658 13.8515 18.6719 11.4062Z" fill="white"/>
<path opacity="0.978" fill-rule="evenodd" clip-rule="evenodd" d="M35 27.7344C36.5309 29.1349 38.0152 30.5933 39.4531 32.1094C37.0312 34.5834 34.5834 37.0312 32.1094 39.4531C30.625 38.0209 29.1666 36.5625 27.7344 35.0781C30.1579 32.6286 32.5798 30.1806 35 27.7344Z" fill="white"/>
<path opacity="0.977" fill-rule="evenodd" clip-rule="evenodd" d="M45 38.9062C45 39.5312 45 40.1562 45 40.7812C44.4528 43.0472 43.0466 44.4534 40.7813 45C40.1563 45 39.5313 45 38.9063 45C38.1168 44.827 37.3876 44.5014 36.7188 44.0234C35.7185 43.1012 34.7419 42.1508 33.7891 41.1719C33.737 41.1198 33.737 41.0677 33.7891 41.0156C36.2121 38.5797 38.6469 36.1578 41.0938 33.75C42.0042 34.6213 42.9026 35.5067 43.7891 36.4062C44.3839 37.1531 44.7876 37.9865 45 38.9062Z" fill="white"/>
</svg>
