<svg width="343" height="263" viewBox="0 0 343 263" fill="none" xmlns="http://www.w3.org/2000/svg">
<path d="M319.462 63.8139C323.951 62.9779 329.743 64.0982 334.416 66.6001C339.103 69.1096 342.5 72.9119 342.5 77.3398V243C342.5 253.77 333.77 262.5 323 262.5H20C9.23044 262.5 0.5 253.77 0.5 243V20C0.5 9.23045 9.23045 0.5 20 0.5H259.979C263.876 0.5 267.134 2.89322 269.296 6.35204C271.459 9.81183 272.474 14.2675 271.909 18.2241C271.639 20.1108 271.5 22.0393 271.5 24C271.5 46.3675 289.632 64.5 312 64.5C314.549 64.5 317.043 64.2645 319.462 63.8139Z" fill="url(#paint0_linear_32_1667)" stroke="#E7E5E5"/>
<defs>
<linearGradient id="paint0_linear_32_1667" x1="87.4314" y1="33.1985" x2="159.263" y2="218.704" gradientUnits="userSpaceOnUse">
<stop stop-color="white"/>
<stop offset="1" stop-color="#F4F4F4"/>
</linearGradient>
</defs>
</svg>
