<svg width="50" height="50" viewBox="0 0 50 50" fill="none" xmlns="http://www.w3.org/2000/svg">
<path d="M35.4282 5.141C33.9597 5.42221 32.5849 6.14083 31.4132 7.24221C29.3979 9.14814 28.3434 11.2337 28.3434 13.3271C28.3434 13.6864 28.3044 14.1864 28.2575 14.4441C28.1403 15.0846 27.6482 16.061 27.1327 16.6625C26.8984 16.9359 26.6953 17.2327 26.6875 17.3264C26.6718 17.592 26.7031 17.7873 26.789 17.967C26.8827 18.1388 26.9062 18.1544 28.1169 18.7246C29.0074 19.1465 29.9603 19.826 30.7649 20.6384C31.3429 21.2164 31.6241 21.6773 31.8585 22.4037C32.0459 22.9974 32.4912 23.2551 32.9911 23.0677C33.1161 23.0208 33.5691 22.6381 33.9987 22.2084L34.7877 21.4351L35.2954 21.5445C36.4514 21.7944 38.2949 21.6226 39.5447 21.1539C42.2239 20.1463 44.2001 17.8498 44.7938 15.0612C44.9813 14.1864 45.0281 12.9288 44.8797 12.5851C44.7313 12.2414 44.3642 12.0227 44.0127 12.0773C43.8799 12.1008 42.7394 12.7335 41.4818 13.4912C40.2242 14.2488 39.1541 14.8659 39.1151 14.8659C39.0682 14.8659 38.8417 14.7409 38.6073 14.5847C37.7793 14.0379 37.0841 13.0459 36.8186 12.0539C36.6155 11.2884 36.4436 11.4524 39.2244 9.78866C40.607 8.96067 41.8177 8.2108 41.9115 8.12488C42.1614 7.90616 42.2239 7.48436 42.0599 7.17972C41.7084 6.53139 39.8103 5.53156 38.3027 5.20349C37.5138 5.03165 36.1624 5.0004 35.4282 5.141Z" fill="white"/>
<path d="M9.59534 5.21907C9.36101 5.28156 8.8689 5.48465 8.50959 5.65649C7.93156 5.9377 7.72066 6.10954 6.90829 6.92972C5.54134 8.29667 5.10391 9.14809 5.01018 10.5697C4.9555 11.4368 5.11953 12.2023 5.54134 13.0693C5.8616 13.7333 5.86941 13.7411 10.9545 18.8183C16.4926 24.3565 16.5629 24.419 18.1173 25.0907C19.125 25.5281 19.4765 25.8796 19.9139 26.8873C20.3279 27.8324 20.7575 28.5042 21.4605 29.3009C22.1401 30.0743 22.6322 30.3476 23.3274 30.3476C23.9445 30.3476 24.2804 30.1914 24.874 29.6134L25.3817 29.1291L30.17 33.9174L34.9661 38.7134L34.9973 39.5805C35.0207 40.3381 35.052 40.5022 35.2395 40.8849C35.6144 41.6582 35.8722 41.8301 39.2232 43.5017C42.1211 44.9546 42.3164 45.0327 42.6054 44.9858C42.8554 44.9311 43.0741 44.7671 43.8318 44.0172C44.7613 43.0955 44.98 42.8143 44.98 42.5175C44.98 42.4315 44.2614 40.924 43.3865 39.1743C42.043 36.4794 41.7384 35.9405 41.465 35.6905C40.9182 35.1984 40.5354 35.0656 39.5434 35.0344L38.6764 35.0031L33.8803 30.207L29.0842 25.411L29.5217 24.9657C30.1466 24.3174 30.2403 24.1378 30.2794 23.4816C30.334 22.6771 30.1075 22.2474 29.2561 21.4976C28.4437 20.7789 27.7954 20.365 26.8346 19.9431C25.8192 19.4979 25.4989 19.1855 25.0615 18.17C24.3819 16.6156 24.3038 16.514 18.9766 11.1712C15.8755 8.06234 13.8993 6.14079 13.579 5.91426C12.7745 5.36748 12.0871 5.15658 10.9623 5.12533C10.3062 5.10971 9.89998 5.14095 9.59534 5.21907Z" fill="white"/>
<path d="M17.1488 26.778C17.0238 26.8404 16.7505 27.0513 16.5317 27.2466C16.0787 27.6528 15.3679 28.0199 14.7117 28.1762C14.454 28.2465 13.7197 28.3324 13.0714 28.3714C11.6732 28.473 10.728 28.6995 9.70477 29.1994C8.43155 29.8165 7.16614 30.9023 6.43189 32.0114C5.43205 33.519 4.89308 35.4484 5.01806 37.0419C5.10398 38.0651 5.27583 38.3619 5.82261 38.4322C6.096 38.4635 6.32253 38.3463 8.8846 36.8075L11.6576 35.1515L12.0091 35.339C12.5559 35.628 13.2667 36.3935 13.6026 37.0575C13.8681 37.5808 14.1962 38.651 14.1181 38.7213C14.1025 38.7369 12.8371 39.4946 11.3139 40.4085C9.79069 41.3224 8.46279 42.1504 8.36906 42.2597C8.1894 42.4472 8.12691 42.8924 8.23627 43.1814C8.38468 43.5564 10.1266 44.4547 11.2983 44.7515C13.9306 45.4232 16.5161 44.7202 18.5548 42.7987C20.5701 40.8928 21.6246 38.8072 21.6246 36.7138C21.6246 35.4484 21.9527 34.4642 22.6791 33.5893C22.9603 33.2456 23.0619 33.0425 23.0853 32.8004C23.14 32.3395 22.9213 32.1052 22.1636 31.824C21.3903 31.5428 20.9685 31.246 20.328 30.5273C19.5312 29.6369 19.0704 28.9651 18.6408 28.0668C18.4299 27.6138 18.219 27.1685 18.1721 27.0748C18.0862 26.9029 17.68 26.6608 17.4691 26.6608C17.4144 26.6608 17.266 26.7155 17.1488 26.778Z" fill="white"/>
</svg>
