<svg width="240" height="240" viewBox="0 0 240 240" fill="none" xmlns="http://www.w3.org/2000/svg">
<path opacity="0.992" fill-rule="evenodd" clip-rule="evenodd" d="M107.576 4.76563C140.701 4.68749 173.827 4.76563 206.951 5.00001C215.495 7.13694 221.198 12.3713 224.061 20.7031C224.831 39.4316 224.987 58.1816 224.529 76.9531C222.107 86.2498 216.248 92.1092 206.951 94.5313C196.326 94.6873 185.701 94.8439 175.076 95C165.569 101.851 156.194 108.882 146.951 116.094C143.826 117.656 140.701 117.656 137.576 116.094C136.355 115.185 135.496 114.013 134.998 112.578C134.764 106.643 134.686 100.705 134.764 94.7656C125.7 94.8439 116.637 94.7656 107.576 94.5313C99.0329 92.3942 93.3301 87.1602 90.467 78.8281C89.6968 60.0997 89.5402 41.3497 89.9982 22.5781C92.5055 13.2743 98.3649 7.33682 107.576 4.76563ZM124.92 42.7344C133.013 42.6205 135.747 46.3705 133.123 53.9844C130.193 57.0364 126.834 57.583 123.045 55.625C119.993 52.6949 119.446 49.3353 121.404 45.5469C122.395 44.3183 123.567 43.3808 124.92 42.7344ZM154.92 42.7344C163.013 42.6205 165.747 46.3705 163.123 53.9844C160.193 57.0364 156.834 57.583 153.045 55.625C149.993 52.6949 149.446 49.3353 151.404 45.5469C152.395 44.3183 153.567 43.3808 154.92 42.7344ZM184.92 42.7344C193.013 42.6205 195.747 46.3705 193.123 53.9844C190.193 57.0364 186.834 57.583 183.045 55.625C179.993 52.6949 179.446 49.3353 181.404 45.5469C182.395 44.3183 183.567 43.3808 184.92 42.7344Z" fill="white" fill-opacity="0.1"/>
<path opacity="0.983" fill-rule="evenodd" clip-rule="evenodd" d="M61.6411 87.2657C74.7985 85.6804 85.1893 90.2118 92.813 100.859C97.6402 109.5 98.5777 118.563 95.6255 128.047C89.0494 142.316 77.8772 148.644 62.1099 147.031C48.8054 144.196 40.6023 136.149 37.5005 122.891C35.8974 104.356 43.9442 92.481 61.6411 87.2657Z" fill="white" fill-opacity="0.1"/>
<path opacity="0.977" fill-rule="evenodd" clip-rule="evenodd" d="M182.578 117.266C196.482 115.889 205.466 121.827 209.532 135.078C211.135 148.991 205.276 157.975 191.953 162.031C178.041 163.635 169.057 157.775 165 144.453C163.453 130.501 169.312 121.438 182.578 117.266Z" fill="white" fill-opacity="0.1"/>
<path opacity="0.995" fill-rule="evenodd" clip-rule="evenodd" d="M39.1406 154.766C57.8911 154.687 76.6411 154.766 95.3906 155C108.425 158.034 116.472 166.081 119.531 179.141C119.844 189.453 119.844 199.766 119.531 210.078C118.672 212.187 117.188 213.672 115.078 214.531C83.2031 214.844 51.3281 214.844 19.4531 214.531C17.3438 213.672 15.8594 212.187 15 210.078C14.6875 199.766 14.6875 189.453 15 179.141C18.1318 166.087 26.1787 157.962 39.1406 154.766Z" fill="white" fill-opacity="0.1"/>
<path opacity="0.992" fill-rule="evenodd" clip-rule="evenodd" d="M167.578 169.766C180.704 169.687 193.829 169.766 206.953 170C216.25 172.422 222.109 178.281 224.531 187.578C224.844 195.078 224.844 202.578 224.531 210.078C223.672 212.187 222.188 213.672 220.078 214.531C198.203 214.844 176.328 214.844 154.453 214.531C152.344 213.672 150.859 212.187 150 210.078C149.687 202.578 149.687 195.078 150 187.578C152.507 178.274 158.367 172.337 167.578 169.766Z" fill="white" fill-opacity="0.1"/>
</svg>
