<svg width="50" height="50" viewBox="0 0 50 50" fill="none" xmlns="http://www.w3.org/2000/svg">
<path d="M24.0552 2.08384C23.2286 2.29948 22.7344 2.63192 21.0183 4.14139C20.0749 4.97699 19.2483 5.65086 19.1674 5.65086C19.0865 5.65086 17.7927 5.55203 16.2832 5.43523C13.1834 5.19263 12.842 5.2106 11.8357 5.6868C11.1349 6.01026 10.4969 6.57631 10.1465 7.18729C9.9758 7.47481 8.19678 12.749 8.19678 12.9646C8.19678 12.9826 7.1725 13.6025 5.93257 14.3303C4.35122 15.2558 3.51562 15.8039 3.20115 16.1273C2.22179 17.0977 1.78153 18.5622 2.10499 19.8291C2.15889 20.0627 2.64408 21.3116 3.17419 22.6055L4.13558 24.9505L3.20115 27.2327C2.68002 28.4816 2.19483 29.7305 2.12295 30.0001C1.88036 30.9345 2.02412 31.9947 2.50931 32.8932C2.94059 33.6749 3.69532 34.2589 6.21111 35.7415C7.50494 36.5052 8.58314 37.1611 8.60111 37.197C8.62806 37.224 8.88862 38.2842 9.18513 39.5331C9.4996 40.8269 9.85001 42.0579 9.99377 42.3813C10.3352 43.1091 11.1169 43.8998 11.8357 44.2322C12.7701 44.6815 13.1744 44.6995 16.1574 44.4838C17.64 44.367 18.9428 44.2861 19.0686 44.2861C19.2303 44.2861 19.6975 44.6455 20.6769 45.5081C21.4406 46.173 22.2313 46.8558 22.4289 47.0266C23.6868 48.0419 25.376 48.2395 26.8046 47.5207C27.1371 47.35 27.9637 46.7031 29.0239 45.7687C30.5963 44.385 30.731 44.2861 31.0635 44.2861C31.2612 44.2861 32.4382 44.367 33.6691 44.4658C36.4545 44.6905 36.8857 44.6905 37.5686 44.4748C38.6288 44.1424 39.4734 43.4416 39.9586 42.4981C40.1652 42.0848 40.5785 40.5574 41.1716 38.0236L41.3602 37.206L43.8041 35.7415C46.3918 34.196 47.0657 33.6749 47.488 32.8932C47.9732 31.9947 48.1169 30.9255 47.8743 30.0001C47.8024 29.7305 47.3173 28.4816 46.7961 27.2327L45.8527 24.9505L46.8411 22.5605C47.47 21.0331 47.8653 19.9549 47.9282 19.5596C48.1439 18.3466 47.7036 17.0168 46.8051 16.1273C46.4817 15.8128 45.5472 15.1929 43.8581 14.1866L41.3782 12.713L40.7942 10.3051C40.4707 8.98428 40.1113 7.70842 39.9945 7.47481C39.6082 6.66616 38.6468 5.80361 37.8112 5.49812C36.9936 5.2106 36.5713 5.20162 33.732 5.42624C32.2136 5.55203 30.9107 5.65086 30.8299 5.65086C30.749 5.65086 30.0033 5.03989 29.1677 4.29414C27.3976 2.71279 27.0472 2.46121 26.3644 2.21861C25.7264 1.99399 24.6482 1.93109 24.0552 2.08384ZM27.5054 10.359C30.5873 10.925 33.2558 12.3087 35.4212 14.4561C37.6405 16.6664 39.0242 19.326 39.6172 22.4797C39.8238 23.6297 39.8238 26.3073 39.6172 27.4573C38.4401 33.7558 33.7859 38.41 27.4875 39.587C26.3374 39.7937 23.6599 39.7937 22.5098 39.587C19.3561 38.994 16.6337 37.5654 14.4413 35.3371C12.267 33.1358 10.8923 30.4224 10.3352 27.2147C10.1914 26.3432 10.1914 23.5938 10.3352 22.7223C11.5122 15.9746 16.6067 11.0868 23.3544 10.2332C24.217 10.1254 26.6069 10.1972 27.5054 10.359Z" fill="white"/>
<path d="M23.7409 12.8927C21.7463 13.1443 19.8325 13.8451 18.1703 14.9502C17.3077 15.5253 15.5556 17.2773 14.9806 18.1399C14.0641 19.5236 13.4262 21.06 13.0758 22.7222C12.8602 23.7825 12.8602 26.1545 13.0758 27.2147C13.6059 29.7395 14.6302 31.6623 16.4182 33.4682C18.2062 35.2832 20.2009 36.3614 22.7526 36.8915C23.8038 37.1071 26.1669 37.1071 27.263 36.8915C29.689 36.4063 31.7016 35.3281 33.4986 33.5491C35.3135 31.7611 36.3917 29.7664 36.9218 27.2147C37.1375 26.1545 37.1375 23.7825 36.9218 22.7222C36.5714 21.06 35.9335 19.5236 35.017 18.1399C34.424 17.2504 32.6899 15.5163 31.7825 14.9233C30.4257 14.0248 28.8623 13.3689 27.3259 13.0634C26.661 12.9286 24.3429 12.8208 23.7409 12.8927ZM32.3665 19.7572C32.7708 19.9638 33.0853 20.476 33.0853 20.9252C33.0853 21.078 33.0044 21.3475 32.9146 21.5362C32.6989 21.9495 24.6125 30.018 24.2171 30.2157C23.8308 30.4044 23.4444 30.3954 23.0401 30.1887C22.6268 29.9731 17.2538 24.5821 17.0561 24.1868C16.508 23.0906 17.73 21.8687 18.8262 22.4167C18.9879 22.4976 20.138 23.5758 21.3869 24.8157L23.6511 27.0799L27.272 23.468C29.2577 21.4913 31.0098 19.8021 31.1535 19.7213C31.5219 19.5326 31.9442 19.5416 32.3665 19.7572Z" fill="white"/>
</svg>
